<?xml version="1.0" encoding="UTF-8" standalone="no"?>
<!-- Created with Inkscape (http://www.inkscape.org/) -->

<svg
   xmlns:dc="http://purl.org/dc/elements/1.1/"
   xmlns:cc="http://creativecommons.org/ns#"
   xmlns:rdf="http://www.w3.org/1999/02/22-rdf-syntax-ns#"
   xmlns:svg="http://www.w3.org/2000/svg"
   xmlns="http://www.w3.org/2000/svg"
   xmlns:sodipodi="http://sodipodi.sourceforge.net/DTD/sodipodi-0.dtd"
   xmlns:inkscape="http://www.inkscape.org/namespaces/inkscape"
   version="1.1"
   id="svg2"
   width="1153.3333"
   height="492"
   viewBox="0 0 1153.3333 492"
   sodipodi:docname="black_text_logo.svg"
   inkscape:version="0.92.3 (2405546, 2018-03-11)"
   inkscape:export-filename="/home/kristian/Desktop/projects/ecommerce-boilerplate/public/logggo.png"
   inkscape:export-xdpi="96"
   inkscape:export-ydpi="96">
  <sodipodi:namedview
     pagecolor="#ffffff"
     bordercolor="#666666"
     borderopacity="1"
     objecttolerance="10"
     gridtolerance="10"
     guidetolerance="10"
     inkscape:pageopacity="0"
     inkscape:pageshadow="2"
     inkscape:window-width="1920"
     inkscape:window-height="1031"
     id="namedview4"
     showgrid="false"
     inkscape:zoom="0.9143747"
     inkscape:cx="261.1273"
     inkscape:cy="218.61498"
     inkscape:window-x="0"
     inkscape:window-y="25"
     inkscape:window-maximized="1"
     inkscape:current-layer="layer17" />
  <metadata
     id="metadata8">
    <rdf:RDF>
      <cc:Work
         rdf:about="">
        <dc:format>image/svg+xml</dc:format>
        <dc:type
           rdf:resource="http://purl.org/dc/dcmitype/StillImage" />
        <dc:title />
      </cc:Work>
    </rdf:RDF>
  </metadata>
  <defs
     id="defs6" />
  <g
     style="display:none"
     inkscape:label="Text 1"
     id="layer13"
     inkscape:groupmode="layer"
     sodipodi:insensitive="true">
    <rect
       y="34.985645"
       x="-29.747711"
       height="434.32819"
       width="1193.2904"
       id="rect6056"
       style="opacity:1;fill:#000000;stroke:#9d9ea7;stroke-width:9.25906658;stroke-linecap:round;stroke-miterlimit:4;stroke-dasharray:none;stroke-opacity:1" />
  </g>
  <g
     style="display:none"
     inkscape:label="base_logo"
     id="layer8"
     inkscape:groupmode="layer"
     sodipodi:insensitive="true">
    <g
       style="display:none"
       inkscape:label="red"
       id="layer5"
       inkscape:groupmode="layer" />
    <g
       style="display:inline"
       inkscape:label="blue"
       id="layer4"
       inkscape:groupmode="layer" />
    <g
       style="display:inline"
       inkscape:label="black base"
       id="layer3"
       inkscape:groupmode="layer" />
  </g>
  <g
     style="display:inline"
     inkscape:label="combined"
     id="layer9"
     inkscape:groupmode="layer"
     sodipodi:insensitive="true">
    <path
       inkscape:connector-curvature="0"
       id="path4792-8"
       d="M 119.64225,68.57971 501.01253,415.16547"
       style="display:inline;fill:none;stroke:#36a0ff;stroke-width:10.4891367;stroke-linecap:round;stroke-linejoin:miter;stroke-miterlimit:4;stroke-dasharray:none;stroke-opacity:1" />
    <path
       inkscape:connector-curvature="0"
       id="path4794-9"
       d="M 75.482512,101.91509 H 283.52161"
       style="display:inline;fill:none;stroke:#36a0ff;stroke-width:10.4891367;stroke-linecap:round;stroke-linejoin:miter;stroke-miterlimit:4;stroke-dasharray:none;stroke-opacity:1" />
    <path
       inkscape:connector-curvature="0"
       id="path4796-2"
       d="m 86.99193,132.65231 203.6238,185.0514"
       style="display:inline;fill:none;stroke:#36a0ff;stroke-width:10.4891367;stroke-linecap:round;stroke-linejoin:miter;stroke-miterlimit:4;stroke-dasharray:none;stroke-opacity:1" />
    <path
       inkscape:connector-curvature="0"
       id="path4798-6"
       d="M 5.1867307,134.9348 200.25316,312.20935"
       style="display:inline;fill:none;stroke:#36a0ff;stroke-width:10.4891367;stroke-linecap:round;stroke-linejoin:miter;stroke-miterlimit:4;stroke-dasharray:none;stroke-opacity:1" />
    <path
       inkscape:connector-curvature="0"
       id="path4800-6"
       d="m 66.54062,244.33106 203.6545,185.0793"
       style="display:inline;fill:none;stroke:#36a0ff;stroke-width:10.4891367;stroke-linecap:round;stroke-linejoin:miter;stroke-miterlimit:4;stroke-dasharray:none;stroke-opacity:1" />
    <path
       inkscape:connector-curvature="0"
       id="path4802-4"
       d="M 232.6626,131.34805 426.07296,307.11757"
       style="display:inline;fill:none;stroke:#36a0ff;stroke-width:10.4891367;stroke-linecap:round;stroke-linejoin:miter;stroke-miterlimit:4;stroke-dasharray:none;stroke-opacity:1" />
    <path
       inkscape:connector-curvature="0"
       id="path4804-9"
       d="M 347.11813,64.992954 541.62681,241.76063"
       style="display:inline;fill:none;stroke:#36a0ff;stroke-width:10.4891367;stroke-linecap:round;stroke-linejoin:miter;stroke-miterlimit:4;stroke-dasharray:none;stroke-opacity:1" />
    <path
       inkscape:connector-curvature="0"
       id="path4806-5"
       d="M 306.57431,133.9566 503.70886,313.11063"
       style="display:inline;fill:none;stroke:#36a0ff;stroke-width:10.4891367;stroke-linecap:round;stroke-linejoin:miter;stroke-miterlimit:4;stroke-dasharray:none;stroke-opacity:1" />
    <path
       inkscape:connector-curvature="0"
       id="path4808-0"
       d="M 171.01809,251.1629 368.40152,430.54311"
       style="display:inline;fill:none;stroke:#36a0ff;stroke-width:10.4891367;stroke-linecap:round;stroke-linejoin:miter;stroke-miterlimit:4;stroke-dasharray:none;stroke-opacity:1" />
    <path
       inkscape:connector-curvature="0"
       id="path4810-48"
       d="M 567.81459,241.018 768.2425,423.165"
       style="display:inline;fill:none;stroke:#36a0ff;stroke-width:10.4891367;stroke-linecap:round;stroke-linejoin:miter;stroke-miterlimit:4;stroke-dasharray:none;stroke-opacity:1" />
    <path
       inkscape:connector-curvature="0"
       id="path4814-7"
       d="M 421.02984,67.601504 628.90355,256.5152"
       style="display:inline;fill:none;stroke:#36a0ff;stroke-width:10.4891367;stroke-linecap:round;stroke-linejoin:miter;stroke-miterlimit:4;stroke-dasharray:none;stroke-opacity:1" />
    <path
       inkscape:connector-curvature="0"
       id="path4816-1"
       d="M 562.75379,128.73949 890.91223,426.96681"
       style="display:inline;fill:none;stroke:#36a0ff;stroke-width:10.4891367;stroke-linecap:round;stroke-linejoin:miter;stroke-miterlimit:4;stroke-dasharray:none;stroke-opacity:1" />
    <path
       inkscape:connector-curvature="0"
       id="path4818-7"
       d="M 596.12168,65.645092 1001.1694,433.74867"
       style="display:inline;fill:none;stroke:#36a0ff;stroke-width:10.4891367;stroke-linecap:round;stroke-linejoin:miter;stroke-miterlimit:4;stroke-dasharray:none;stroke-opacity:1" />
    <path
       inkscape:connector-curvature="0"
       id="path4820-2"
       d="M 677.2093,62.384394 1083.5927,431.70189"
       style="display:inline;fill:none;stroke:#36a0ff;stroke-width:10.4891367;stroke-linecap:round;stroke-linejoin:miter;stroke-miterlimit:4;stroke-dasharray:none;stroke-opacity:1" />
    <path
       inkscape:connector-curvature="0"
       id="path4822-7"
       d="m 820.7272,64.340817 224.962,204.443243"
       style="display:inline;fill:none;stroke:#36a0ff;stroke-width:10.4891367;stroke-linecap:round;stroke-linejoin:miter;stroke-miterlimit:4;stroke-dasharray:none;stroke-opacity:1" />
    <path
       inkscape:connector-curvature="0"
       id="path4824-2"
       d="M 896.79169,66.949367 1117.2976,267.34307"
       style="display:inline;fill:none;stroke:#36a0ff;stroke-width:10.4891367;stroke-linecap:round;stroke-linejoin:miter;stroke-miterlimit:4;stroke-dasharray:none;stroke-opacity:1" />
    <path
       inkscape:connector-curvature="0"
       id="path4826-2"
       d="M 837.75799,145.10261 1032.6044,322.17717"
       style="display:inline;fill:none;stroke:#36a0ff;stroke-width:10.4891367;stroke-linecap:round;stroke-linejoin:miter;stroke-miterlimit:4;stroke-dasharray:none;stroke-opacity:1" />
    <path
       inkscape:connector-curvature="0"
       id="path4828-6"
       d="m 231.43471,155.31415 h 316.0424"
       style="display:inline;fill:none;stroke:#36a0ff;stroke-width:10.4891367;stroke-linecap:round;stroke-linejoin:miter;stroke-miterlimit:4;stroke-dasharray:none;stroke-opacity:1" />
    <path
       inkscape:connector-curvature="0"
       id="path4830-1"
       d="M 571.21335,185.14949 H 900.67712"
       style="display:inline;fill:none;stroke:#36a0ff;stroke-width:10.4891367;stroke-linecap:round;stroke-linejoin:miter;stroke-miterlimit:4;stroke-dasharray:none;stroke-opacity:1" />
    <path
       inkscape:connector-curvature="0"
       id="path4832-06"
       d="M 937.21082,205.97199 H 1140.1757"
       style="display:inline;fill:none;stroke:#36a0ff;stroke-width:10.4891367;stroke-linecap:round;stroke-linejoin:miter;stroke-miterlimit:4;stroke-dasharray:none;stroke-opacity:1" />
    <path
       inkscape:connector-curvature="0"
       id="path4834-1"
       d="M 685.66885,118.7944 H 1018.3968"
       style="display:inline;fill:none;stroke:#36a0ff;stroke-width:10.4891367;stroke-linecap:round;stroke-linejoin:miter;stroke-miterlimit:4;stroke-dasharray:none;stroke-opacity:1" />
    <path
       inkscape:connector-curvature="0"
       id="path4836-5"
       d="M 16.080317,278.24227 H 274.53022"
       style="display:inline;fill:none;stroke:#36a0ff;stroke-width:10.4891367;stroke-linecap:round;stroke-linejoin:miter;stroke-miterlimit:4;stroke-dasharray:none;stroke-opacity:1" />
    <path
       inkscape:connector-curvature="0"
       id="path4838-9"
       d="M 72.281336,343.93232 H 1144.235"
       style="display:inline;fill:none;stroke:#36a0ff;stroke-width:10.4891367;stroke-linecap:round;stroke-linejoin:miter;stroke-miterlimit:4;stroke-dasharray:none;stroke-opacity:1" />
    <path
       inkscape:connector-curvature="0"
       id="path4840-4"
       d="M 651.03023,295.43153 H 965.62592"
       style="display:inline;fill:none;stroke:#36a0ff;stroke-width:10.4891367;stroke-linecap:round;stroke-linejoin:miter;stroke-miterlimit:4;stroke-dasharray:none;stroke-opacity:1" />
    <path
       inkscape:connector-curvature="0"
       id="path4842-9"
       d="M 409.50192,264.99685 H 735.26069"
       style="display:inline;fill:none;stroke:#36a0ff;stroke-width:10.4891367;stroke-linecap:round;stroke-linejoin:miter;stroke-miterlimit:4;stroke-dasharray:none;stroke-opacity:1" />
    <path
       inkscape:connector-curvature="0"
       id="path4844-0"
       d="M 116.9792,221.66924 H 433.02159"
       style="display:inline;fill:none;stroke:#36a0ff;stroke-width:10.4891367;stroke-linecap:round;stroke-linejoin:miter;stroke-miterlimit:4;stroke-dasharray:none;stroke-opacity:1" />
    <path
       inkscape:connector-curvature="0"
       id="path4792-1"
       d="M 123.16219,66.426639 504.53245,413.0124"
       style="display:inline;fill:none;stroke:#ff1fbd;stroke-width:10.4891367;stroke-linecap:round;stroke-linejoin:miter;stroke-miterlimit:4;stroke-dasharray:none;stroke-opacity:1" />
    <path
       inkscape:connector-curvature="0"
       id="path4794-2"
       d="M 74.009245,98.517146 H 282.04833"
       style="display:inline;fill:none;stroke:#ff1fbd;stroke-width:10.4891367;stroke-linecap:round;stroke-linejoin:miter;stroke-miterlimit:4;stroke-dasharray:none;stroke-opacity:1" />
    <path
       inkscape:connector-curvature="0"
       id="path4796-9"
       d="M 89.448991,130.30873 293.07276,315.36013"
       style="display:inline;fill:none;stroke:#ff1fbd;stroke-width:10.4891367;stroke-linecap:round;stroke-linejoin:miter;stroke-miterlimit:4;stroke-dasharray:none;stroke-opacity:1" />
    <path
       inkscape:connector-curvature="0"
       id="path4798-3"
       d="M 8.7066563,132.78173 203.77311,310.05628"
       style="display:inline;fill:none;stroke:#ff1fbd;stroke-width:10.4891367;stroke-linecap:round;stroke-linejoin:miter;stroke-miterlimit:4;stroke-dasharray:none;stroke-opacity:1" />
    <path
       inkscape:connector-curvature="0"
       id="path4800-1"
       d="M 70.060574,242.17799 273.71507,427.25729"
       style="display:inline;fill:none;stroke:#ff1fbd;stroke-width:10.4891367;stroke-linecap:round;stroke-linejoin:miter;stroke-miterlimit:4;stroke-dasharray:none;stroke-opacity:1" />
    <path
       inkscape:connector-curvature="0"
       id="path4802-9"
       d="M 236.18255,129.19498 429.5929,304.9645"
       style="display:inline;fill:none;stroke:#ff1fbd;stroke-width:10.4891367;stroke-linecap:round;stroke-linejoin:miter;stroke-miterlimit:4;stroke-dasharray:none;stroke-opacity:1" />
    <path
       inkscape:connector-curvature="0"
       id="path4804-4"
       d="M 350.63806,62.839883 545.14674,239.60756"
       style="display:inline;fill:none;stroke:#ff1fbd;stroke-width:10.4891367;stroke-linecap:round;stroke-linejoin:miter;stroke-miterlimit:4;stroke-dasharray:none;stroke-opacity:1" />
    <path
       inkscape:connector-curvature="0"
       id="path4806-7"
       d="M 310.09429,131.80353 507.22882,310.95756"
       style="display:inline;fill:none;stroke:#ff1fbd;stroke-width:10.4891367;stroke-linecap:round;stroke-linejoin:miter;stroke-miterlimit:4;stroke-dasharray:none;stroke-opacity:1" />
    <path
       inkscape:connector-curvature="0"
       id="path4808-8"
       d="M 174.53804,249.00983 371.92143,428.39004"
       style="display:inline;fill:none;stroke:#ff1fbd;stroke-width:10.4891367;stroke-linecap:round;stroke-linejoin:miter;stroke-miterlimit:4;stroke-dasharray:none;stroke-opacity:1" />
    <path
       inkscape:connector-curvature="0"
       id="path4810-4"
       d="m 571.33456,238.86493 200.42794,182.147"
       style="display:inline;fill:none;stroke:#ff1fbd;stroke-width:10.4891367;stroke-linecap:round;stroke-linejoin:miter;stroke-miterlimit:4;stroke-dasharray:none;stroke-opacity:1" />
    <path
       inkscape:connector-curvature="0"
       id="path4814-5"
       d="M 424.54982,65.448433 632.42353,254.36213"
       style="display:inline;fill:none;stroke:#ff1fbd;stroke-width:10.4891367;stroke-linecap:round;stroke-linejoin:miter;stroke-miterlimit:4;stroke-dasharray:none;stroke-opacity:1" />
    <path
       inkscape:connector-curvature="0"
       id="path4816-0"
       d="M 566.27377,126.58642 894.43214,424.81374"
       style="display:inline;fill:none;stroke:#ff1fbd;stroke-width:10.4891367;stroke-linecap:round;stroke-linejoin:miter;stroke-miterlimit:4;stroke-dasharray:none;stroke-opacity:1" />
    <path
       inkscape:connector-curvature="0"
       id="path4818-3"
       d="M 599.64166,63.49202 1004.6893,431.5956"
       style="display:inline;fill:none;stroke:#ff1fbd;stroke-width:10.4891367;stroke-linecap:round;stroke-linejoin:miter;stroke-miterlimit:4;stroke-dasharray:none;stroke-opacity:1" />
    <path
       inkscape:connector-curvature="0"
       id="path4820-6"
       d="M 680.7292,60.231323 1087.1126,429.54882"
       style="display:inline;fill:none;stroke:#ff1fbd;stroke-width:10.4891367;stroke-linecap:round;stroke-linejoin:miter;stroke-miterlimit:4;stroke-dasharray:none;stroke-opacity:1" />
    <path
       inkscape:connector-curvature="0"
       id="path4822-1"
       d="M 824.24718,62.187745 1049.2089,266.63099"
       style="display:inline;fill:none;stroke:#ff1fbd;stroke-width:10.4891367;stroke-linecap:round;stroke-linejoin:miter;stroke-miterlimit:4;stroke-dasharray:none;stroke-opacity:1" />
    <path
       inkscape:connector-curvature="0"
       id="path4824-0"
       d="M 900.31167,64.796295 1120.8173,265.19"
       style="display:inline;fill:none;stroke:#ff1fbd;stroke-width:10.4891367;stroke-linecap:round;stroke-linejoin:miter;stroke-miterlimit:4;stroke-dasharray:none;stroke-opacity:1" />
    <path
       inkscape:connector-curvature="0"
       id="path4826-6"
       d="M 841.27794,142.94954 1036.1242,320.0241"
       style="display:inline;fill:none;stroke:#ff1fbd;stroke-width:10.4891367;stroke-linecap:round;stroke-linejoin:miter;stroke-miterlimit:4;stroke-dasharray:none;stroke-opacity:1" />
    <path
       inkscape:connector-curvature="0"
       id="path4828-3"
       d="M 234.95466,153.16109 H 550.9971"
       style="display:inline;fill:none;stroke:#ff1fbd;stroke-width:10.4891367;stroke-linecap:round;stroke-linejoin:miter;stroke-miterlimit:4;stroke-dasharray:none;stroke-opacity:1" />
    <path
       inkscape:connector-curvature="0"
       id="path4830-2"
       d="M 574.73326,182.99642 H 904.19713"
       style="display:inline;fill:none;stroke:#ff1fbd;stroke-width:10.4891367;stroke-linecap:round;stroke-linejoin:miter;stroke-miterlimit:4;stroke-dasharray:none;stroke-opacity:1" />
    <path
       inkscape:connector-curvature="0"
       id="path4832-0"
       d="M 940.73077,203.81892 H 1143.6956"
       style="display:inline;fill:none;stroke:#ff1fbd;stroke-width:10.4891367;stroke-linecap:round;stroke-linejoin:miter;stroke-miterlimit:4;stroke-dasharray:none;stroke-opacity:1" />
    <path
       inkscape:connector-curvature="0"
       id="path4834-6"
       d="m 689.1888,116.64134 h 332.7279"
       style="display:inline;fill:none;stroke:#ff1fbd;stroke-width:10.4891367;stroke-linecap:round;stroke-linejoin:miter;stroke-miterlimit:4;stroke-dasharray:none;stroke-opacity:1" />
    <path
       inkscape:connector-curvature="0"
       id="path4836-1"
       d="M 19.600272,276.0892 H 278.05018"
       style="display:inline;fill:none;stroke:#ff1fbd;stroke-width:10.4891367;stroke-linecap:round;stroke-linejoin:miter;stroke-miterlimit:4;stroke-dasharray:none;stroke-opacity:1" />
    <path
       inkscape:connector-curvature="0"
       id="path4838-5"
       d="M 75.801291,341.77925 H 1147.7548"
       style="display:inline;fill:none;stroke:#ff1fbd;stroke-width:10.4891367;stroke-linecap:round;stroke-linejoin:miter;stroke-miterlimit:4;stroke-dasharray:none;stroke-opacity:1" />
    <path
       inkscape:connector-curvature="0"
       id="path4840-5"
       d="M 654.55017,293.27846 H 969.14591"
       style="display:inline;fill:none;stroke:#ff1fbd;stroke-width:10.4891367;stroke-linecap:round;stroke-linejoin:miter;stroke-miterlimit:4;stroke-dasharray:none;stroke-opacity:1" />
    <path
       inkscape:connector-curvature="0"
       id="path4842-4"
       d="M 413.02184,262.84378 H 738.78059"
       style="display:inline;fill:none;stroke:#ff1fbd;stroke-width:10.4891367;stroke-linecap:round;stroke-linejoin:miter;stroke-miterlimit:4;stroke-dasharray:none;stroke-opacity:1" />
    <path
       inkscape:connector-curvature="0"
       id="path4844-7"
       d="M 120.49914,219.51617 H 436.54157"
       style="display:inline;fill:none;stroke:#ff1fbd;stroke-width:10.4891367;stroke-linecap:round;stroke-linejoin:miter;stroke-miterlimit:4;stroke-dasharray:none;stroke-opacity:1" />
    <path
       inkscape:connector-curvature="0"
       id="path4792"
       d="M 121.64174,67.767872 503.01203,414.35362"
       style="display:inline;fill:none;stroke:#000000;stroke-width:9.02065849;stroke-linecap:round;stroke-linejoin:miter;stroke-miterlimit:4;stroke-dasharray:none;stroke-opacity:1" />
    <path
       inkscape:connector-curvature="0"
       id="path4794"
       d="M 75.594392,100.94439 H 283.63348"
       style="display:inline;fill:none;stroke:#000000;stroke-width:9.02065849;stroke-linecap:round;stroke-linejoin:miter;stroke-miterlimit:4;stroke-dasharray:none;stroke-opacity:1" />
    <path
       inkscape:connector-curvature="0"
       id="path4796"
       d="M 88.991423,131.84046 292.61522,316.89186"
       style="display:inline;fill:none;stroke:#000000;stroke-width:9.02065849;stroke-linecap:round;stroke-linejoin:miter;stroke-miterlimit:4;stroke-dasharray:none;stroke-opacity:1" />
    <path
       inkscape:connector-curvature="0"
       id="path4798"
       d="M 7.1862139,134.12296 202.25265,311.3975"
       style="display:inline;fill:none;stroke:#000000;stroke-width:9.02065849;stroke-linecap:round;stroke-linejoin:miter;stroke-miterlimit:4;stroke-dasharray:none;stroke-opacity:1" />
    <path
       inkscape:connector-curvature="0"
       id="path4800"
       d="M 68.540114,243.51922 272.1946,428.59851"
       style="display:inline;fill:none;stroke:#000000;stroke-width:9.02065849;stroke-linecap:round;stroke-linejoin:miter;stroke-miterlimit:4;stroke-dasharray:none;stroke-opacity:1" />
    <path
       inkscape:connector-curvature="0"
       id="path4802"
       d="M 234.66209,130.5362 428.07245,306.30572"
       style="display:inline;fill:none;stroke:#000000;stroke-width:9.02065849;stroke-linecap:round;stroke-linejoin:miter;stroke-miterlimit:4;stroke-dasharray:none;stroke-opacity:1" />
    <path
       inkscape:connector-curvature="0"
       id="path4804"
       d="M 349.11762,64.181117 543.62628,240.94878"
       style="display:inline;fill:none;stroke:#000000;stroke-width:9.02065849;stroke-linecap:round;stroke-linejoin:miter;stroke-miterlimit:4;stroke-dasharray:none;stroke-opacity:1" />
    <path
       inkscape:connector-curvature="0"
       id="path4806"
       d="M 308.57379,133.14475 505.70835,312.29878"
       style="display:inline;fill:none;stroke:#000000;stroke-width:9.02065849;stroke-linecap:round;stroke-linejoin:miter;stroke-miterlimit:4;stroke-dasharray:none;stroke-opacity:1" />
    <path
       inkscape:connector-curvature="0"
       id="path4808"
       d="M 173.01758,250.35105 370.401,429.73126"
       style="display:inline;fill:none;stroke:#000000;stroke-width:9.02065849;stroke-linecap:round;stroke-linejoin:miter;stroke-miterlimit:4;stroke-dasharray:none;stroke-opacity:1" />
    <path
       inkscape:connector-curvature="0"
       id="path4810"
       d="m 569.81408,240.20615 200.4279,182.147"
       style="display:inline;fill:none;stroke:#000000;stroke-width:9.02065849;stroke-linecap:round;stroke-linejoin:miter;stroke-miterlimit:4;stroke-dasharray:none;stroke-opacity:1" />
    <path
       inkscape:connector-curvature="0"
       id="path4814"
       d="M 423.02933,66.789666 630.90304,255.70335"
       style="display:inline;fill:none;stroke:#000000;stroke-width:9.02065849;stroke-linecap:round;stroke-linejoin:miter;stroke-miterlimit:4;stroke-dasharray:none;stroke-opacity:1" />
    <path
       inkscape:connector-curvature="0"
       id="path4816"
       d="M 564.75328,127.92764 892.9117,426.15496"
       style="display:inline;fill:none;stroke:#000000;stroke-width:9.02065849;stroke-linecap:round;stroke-linejoin:miter;stroke-miterlimit:4;stroke-dasharray:none;stroke-opacity:1" />
    <path
       inkscape:connector-curvature="0"
       id="path4818"
       d="M 598.12117,64.833255 1003.1689,432.93682"
       style="display:inline;fill:none;stroke:#000000;stroke-width:9.02065849;stroke-linecap:round;stroke-linejoin:miter;stroke-miterlimit:4;stroke-dasharray:none;stroke-opacity:1" />
    <path
       inkscape:connector-curvature="0"
       id="path4820"
       d="M 679.20878,61.572557 1085.5923,430.89004"
       style="display:inline;fill:none;stroke:#000000;stroke-width:9.02065849;stroke-linecap:round;stroke-linejoin:miter;stroke-miterlimit:4;stroke-dasharray:none;stroke-opacity:1" />
    <path
       inkscape:connector-curvature="0"
       id="path4822"
       d="M 822.72668,63.52898 1047.6886,267.97221"
       style="display:inline;fill:none;stroke:#000000;stroke-width:9.02065849;stroke-linecap:round;stroke-linejoin:miter;stroke-miterlimit:4;stroke-dasharray:none;stroke-opacity:1" />
    <path
       inkscape:connector-curvature="0"
       id="path4824"
       d="M 898.79116,66.137529 1119.2971,266.53123"
       style="display:inline;fill:none;stroke:#000000;stroke-width:9.02065849;stroke-linecap:round;stroke-linejoin:miter;stroke-miterlimit:4;stroke-dasharray:none;stroke-opacity:1" />
    <path
       inkscape:connector-curvature="0"
       id="path4826"
       d="M 839.75747,144.29076 1034.6039,321.36532"
       style="display:inline;fill:none;stroke:#000000;stroke-width:9.02065849;stroke-linecap:round;stroke-linejoin:miter;stroke-miterlimit:4;stroke-dasharray:none;stroke-opacity:1" />
    <path
       inkscape:connector-curvature="0"
       id="path4828"
       d="m 233.43419,154.50231 h 316.0424"
       style="display:inline;fill:none;stroke:#000000;stroke-width:9.02065849;stroke-linecap:round;stroke-linejoin:miter;stroke-miterlimit:4;stroke-dasharray:none;stroke-opacity:1" />
    <path
       inkscape:connector-curvature="0"
       id="path4830"
       d="M 573.21282,184.33764 H 902.67661"
       style="display:inline;fill:none;stroke:#000000;stroke-width:9.02065849;stroke-linecap:round;stroke-linejoin:miter;stroke-miterlimit:4;stroke-dasharray:none;stroke-opacity:1" />
    <path
       inkscape:connector-curvature="0"
       id="path4832"
       d="M 939.21032,205.16015 H 1142.1753"
       style="display:inline;fill:none;stroke:#000000;stroke-width:9.02065849;stroke-linecap:round;stroke-linejoin:miter;stroke-miterlimit:4;stroke-dasharray:none;stroke-opacity:1" />
    <path
       inkscape:connector-curvature="0"
       id="path4834"
       d="M 687.66835,117.98256 H 1020.3963"
       style="display:inline;fill:none;stroke:#000000;stroke-width:9.02065849;stroke-linecap:round;stroke-linejoin:miter;stroke-miterlimit:4;stroke-dasharray:none;stroke-opacity:1" />
    <path
       inkscape:connector-curvature="0"
       id="path4836"
       d="M 18.079811,277.43043 H 276.5297"
       style="display:inline;fill:none;stroke:#000000;stroke-width:9.02065849;stroke-linecap:round;stroke-linejoin:miter;stroke-miterlimit:4;stroke-dasharray:none;stroke-opacity:1" />
    <path
       inkscape:connector-curvature="0"
       id="path4838"
       d="M 74.280832,343.12047 H 1146.2346"
       style="display:inline;fill:none;stroke:#000000;stroke-width:9.02065849;stroke-linecap:round;stroke-linejoin:miter;stroke-miterlimit:4;stroke-dasharray:none;stroke-opacity:1" />
    <path
       inkscape:connector-curvature="0"
       id="path4840"
       d="M 653.0297,294.61969 H 967.6254"
       style="display:inline;fill:none;stroke:#000000;stroke-width:9.02065849;stroke-linecap:round;stroke-linejoin:miter;stroke-miterlimit:4;stroke-dasharray:none;stroke-opacity:1" />
    <path
       inkscape:connector-curvature="0"
       id="path4842"
       d="M 411.50141,264.185 H 737.26017"
       style="display:inline;fill:none;stroke:#000000;stroke-width:9.02065849;stroke-linecap:round;stroke-linejoin:miter;stroke-miterlimit:4;stroke-dasharray:none;stroke-opacity:1" />
    <path
       inkscape:connector-curvature="0"
       id="path4844"
       d="M 118.97869,220.85739 H 435.02108"
       style="display:inline;fill:none;stroke:#000000;stroke-width:9.02065849;stroke-linecap:round;stroke-linejoin:miter;stroke-miterlimit:4;stroke-dasharray:none;stroke-opacity:1" />
  </g>
  <g
     inkscape:groupmode="layer"
     id="layer20"
     inkscape:label="Text LOWER"
     style="display:inline">
    <g
       id="flowRoot5480-1-5"
       style="font-style:normal;font-weight:normal;font-size:160px;line-height:1.25;font-family:sans-serif;letter-spacing:0px;word-spacing:0px;opacity:0.4;fill:#bfbfbf;fill-opacity:1;stroke:none"
       aria-label="HIGHER PLANE"
       transform="translate(-30.272784,-67.902717)"
       inkscape:export-xdpi="96"
       inkscape:export-ydpi="96">
      <path
         id="path6527-0-7"
         style="font-style:normal;font-weight:bold;font-size:120px;fill:#bfbfbf;fill-opacity:1"
         d="m 100.603,270.90072 c 0,0 20.18634,0.001 20.18634,0.001 0,0 40.04439,40.04439 40.04439,40.04439 0,0 29.87116,0.0418 29.87116,0.0418 0,0 -40.08431,-40.08431 -40.08431,-40.08431 0,0 20.25396,0.001 20.25396,0.001 0,0 105.24843,105.24844 105.24843,105.24844 0,0 -20.32509,-0.0724 -20.32509,-0.0724 0,0 -44.59293,-44.59293 -44.59293,-44.59293 0,0 -29.89157,-0.0622 -29.89157,-0.0622 0,0 44.54851,44.54851 44.54851,44.54851 0,0 -20.25724,-0.0722 -20.25724,-0.0722 0,0 -105.00165,-105.00166 -105.00165,-105.00166"
         inkscape:connector-curvature="0" />
      <path
         id="path6529-4-0"
         style="font-style:normal;font-weight:bold;font-size:120px;fill:#bfbfbf;fill-opacity:1"
         d="m 190.78692,270.90645 c 0,0 20.30834,10e-4 20.30834,10e-4 0,0 105.38967,105.38968 105.38967,105.38968 0,0 -20.37965,-0.0726 -20.37965,-0.0726 0,0 -105.31836,-105.31836 -105.31836,-105.31836"
         inkscape:connector-curvature="0" />
      <path
         id="path6531-8-8"
         style="font-style:normal;font-weight:bold;font-size:120px;fill:#bfbfbf;fill-opacity:1"
         d="m 400.06395,368.764 c -1.81025,3.28671 -4.6409,5.74586 -8.49137,7.37785 -3.84907,1.63139 -8.69937,2.43624 -14.55025,2.415 -13.2182,-0.048 -28.58161,-4.98582 -46.0922,-14.80975 -17.54872,-9.86599 -34.72416,-23.20154 -51.53305,-40.01044 -16.99722,-16.99722 -26.45548,-30.36583 -28.37551,-40.10962 -1.92101,-9.74887 3.92848,-14.62521 17.5585,-14.62521 5.26464,0 10.9617,0.66036 17.09126,1.9814 6.16692,1.32147 12.68977,3.2804 19.56854,5.87702 0,0 21.87616,21.87617 21.87616,21.87617 -7.7786,-3.35492 -14.68791,-5.85953 -20.72831,-7.51421 -6.00326,-1.65417 -11.19711,-2.48251 -15.5819,-2.48539 -8.12968,-0.005 -11.36053,3.0307 -9.69621,9.10675 1.65203,6.02718 8.1083,14.67056 19.3692,25.93146 11.16666,11.16666 21.91082,19.79428 32.23465,25.88413 10.32674,6.09157 19.40436,9.14965 27.23371,9.17297 2.12632,0.006 3.92836,-0.15287 5.40604,-0.47765 1.46614,-0.37187 2.54878,-0.93305 3.24781,-1.68354 0,0 -20.51981,-20.51981 -20.51981,-20.51981 0,0 -12.48563,-0.0278 -12.48563,-0.0278 0,0 -18.24798,-18.24799 -18.24798,-18.24799 0,0 31.87942,0.0517 31.87942,0.0517 0,0 50.83693,50.83693 50.83693,50.83693"
         inkscape:connector-curvature="0" />
      <path
         id="path6533-7-1"
         style="font-style:normal;font-weight:bold;font-size:120px;fill:#bfbfbf;fill-opacity:1"
         d="m 320.17391,270.91466 c 0,0 20.48402,10e-4 20.48402,10e-4 0,0 40.33865,40.33865 40.33865,40.33865 0,0 30.31202,0.0424 30.31202,0.0424 0,0 -40.37917,-40.37917 -40.37917,-40.37917 0,0 20.55313,0.001 20.55313,0.001 0,0 106.02315,106.02317 106.02315,106.02317 0,0 -20.62531,-0.0735 -20.62531,-0.0735 0,0 -44.92095,-44.92095 -44.92095,-44.92095 0,0 -30.33273,-0.0632 -30.33273,-0.0632 0,0 44.87588,44.87589 44.87588,44.87589 0,0 -20.55596,-0.0732 -20.55596,-0.0732 0,0 -105.77273,-105.77275 -105.77273,-105.77275"
         inkscape:connector-curvature="0" />
      <path
         id="path6535-0-9"
         style="font-style:normal;font-weight:bold;font-size:120px;fill:#bfbfbf;fill-opacity:1"
         d="m 411.68926,270.92048 c 0,0 55.68132,0.004 55.68132,0.004 0,0 20.71687,20.71688 20.71687,20.71688 0,0 -35.0966,-0.0262 -35.0966,-0.0262 0,0 19.76843,19.76844 19.76843,19.76844 0,0 33.02297,0.0462 33.02297,0.0462 0,0 20.71544,20.71544 20.71544,20.71544 0,0 -33.04554,-0.0688 -33.04554,-0.0688 0,0 24.31944,24.31945 24.31944,24.31945 0,0 36.35632,0.1048 36.35632,0.1048 0,0 20.71769,20.71769 20.71769,20.71769 0,0 -57.06223,-0.2033 -57.06223,-0.2033 0,0 -106.09411,-106.09412 -106.09411,-106.09412"
         inkscape:connector-curvature="0" />
      <path
         id="path6537-8-9"
         style="font-style:normal;font-weight:bold;font-size:120px;fill:#bfbfbf;fill-opacity:1"
         d="m 563.4049,318.13225 c 4.35237,0.007 6.39467,-1.05779 6.12595,-3.19469 -0.23277,-2.13711 -2.79834,-5.65495 -7.69671,-10.55332 -4.85082,-4.85082 -9.27559,-8.32333 -13.27394,-10.41734 -3.96191,-2.09372 -8.11737,-3.14205 -12.46583,-3.14518 0,0 -8.72908,-0.006 -8.72908,-0.006 0,0 27.30267,27.30268 27.30267,27.30268 0,0 8.73694,0.0141 8.73694,0.0141 m 10.22522,18.94804 c 0,0 40.27678,40.27678 40.27678,40.27678 0,0 -20.78404,-0.074 -20.78404,-0.074 0,0 -106.35776,-106.35778 -106.35776,-106.35778 0,0 31.64323,0.002 31.64323,0.002 10.59838,6.8e-4 20.71798,2.35589 30.35557,7.0668 9.67672,4.71245 19.60835,12.16134 29.79252,22.3455 7.04326,7.04327 11.52811,12.82351 13.4543,17.34017 1.96192,4.51595 1.41905,7.83932 -1.62755,9.97011 3.7019,0.86175 8.19242,2.81724 13.47161,5.8667 5.26843,3.00241 12.12597,7.57559 20.57299,13.71991 0,0 41.59093,30.30629 41.59093,30.30629 0,0 -22.20856,-0.0791 -22.20856,-0.0791 0,0 -36.31274,-26.49977 -36.31274,-26.49977 -7.30742,-5.33122 -12.9619,-8.97382 -16.96374,-10.92814 -3.9653,-1.95397 -7.63931,-2.93465 -11.02186,-2.94223 0,0 -5.88168,-0.0132 -5.88168,-0.0132"
         inkscape:connector-curvature="0" />
      <path
         id="path6539-6-7"
         style="font-style:normal;font-weight:bold;font-size:120px;fill:#bfbfbf;fill-opacity:1"
         d="m 610.26694,270.93309 c 0,0 34.67214,0.002 34.67214,0.002 10.32464,6.6e-4 21.27824,3.03445 32.85868,9.10303 11.57316,6.02302 22.95276,14.62679 34.13563,25.80966 11.23067,11.23068 17.09968,19.87552 17.60689,25.93287 0.4956,6.00746 -4.43347,8.9982 -14.78179,8.97387 0,0 -13.82314,-0.0325 -13.82314,-0.0325 0,0 37.07701,37.07702 37.07701,37.07702 0,0 -20.95395,-0.0747 -20.95395,-0.0747 0,0 -106.79147,-106.79148 -106.79147,-106.79148 m 40.85067,19.97137 c 0,0 29.84771,29.84771 29.84771,29.84771 0,0 11.5834,0.0197 11.5834,0.0197 4.06262,0.007 5.91182,-1.27696 5.54675,-3.85186 -0.41286,-2.62302 -3.00713,-6.32248 -7.78276,-11.09811 -4.77561,-4.77561 -9.55907,-8.45387 -14.34983,-11.03448 -4.79007,-2.58025 -9.21458,-3.87169 -13.27322,-3.87461 0,0 -11.57205,-0.008 -11.57205,-0.008"
         inkscape:connector-curvature="0" />
      <path
         id="path6541-2-8"
         style="font-style:normal;font-weight:bold;font-size:120px;fill:#bfbfbf;fill-opacity:1"
         d="m 691.78215,270.93826 c 0,0 20.99277,10e-4 20.99277,10e-4 0,0 86.2666,86.26661 86.2666,86.26661 0,0 37.03445,0.10676 37.03445,0.10676 0,0 20.91013,20.91013 20.91013,20.91013 0,0 -58.12622,-0.20709 -58.12622,-0.20709 0,0 -107.07773,-107.07775 -107.07773,-107.07775"
         inkscape:connector-curvature="0" />
      <path
         id="path6543-4-2"
         style="font-style:normal;font-weight:bold;font-size:120px;fill:#bfbfbf;fill-opacity:1"
         d="m 900.59779,358.86311 c 0,0 -33.12229,-0.0969 -33.12229,-0.0969 0,0 14.34028,19.54541 14.34028,19.54541 0,0 -21.26151,-0.0758 -21.26151,-0.0758 0,0 -77.00951,-107.29173 -77.00951,-107.29173 0,0 25.182,0.002 25.182,0.002 0,0 137.98938,107.5971 137.98938,107.5971 0,0 -21.35152,-0.0761 -21.35152,-0.0761 0,0 -24.76683,-19.60361 -24.76683,-19.60361 m -47.7722,-20.00859 c 0,0 22.48869,0.0513 22.48869,0.0513 0,0 -53.9684,-42.773 -53.9684,-42.773 0,0 31.47971,42.72175 31.47971,42.72175"
         inkscape:connector-curvature="0" />
      <path
         id="path6545-7-5"
         style="font-style:normal;font-weight:bold;font-size:120px;fill:#bfbfbf;fill-opacity:1"
         d="m 849.96318,270.94831 c 0,0 23.69237,0.002 23.69237,0.002 0,0 103.92225,73.95328 103.92225,73.95328 0,0 -73.95137,-73.95138 -73.95137,-73.95138 0,0 20.17912,0.001 20.17912,0.001 0,0 107.89255,107.89256 107.89255,107.89256 0,0 -23.8534,-0.085 -23.8534,-0.085 0,0 -103.93962,-73.97769 -103.93962,-73.97769 0,0 73.87055,73.87056 73.87055,73.87056 0,0 -20.17923,-0.0719 -20.17923,-0.0719 0,0 -107.63322,-107.63325 -107.63322,-107.63325"
         inkscape:connector-curvature="0" />
      <path
         id="path6547-9-3"
         style="font-style:normal;font-weight:bold;font-size:120px;fill:#bfbfbf;fill-opacity:1"
         d="m 944.73134,270.95433 c 0,0 57.66536,0.004 57.66536,0.004 0,0 21.0831,21.08309 21.0831,21.08309 0,0 -36.3476,-0.0272 -36.3476,-0.0272 0,0 20.1175,20.11748 20.1175,20.11748 0,0 34.2001,0.0479 34.2001,0.0479 0,0 21.0816,21.0816 21.0816,21.0816 0,0 -34.2235,-0.0713 -34.2235,-0.0713 0,0 24.7488,24.74884 24.7488,24.74884 0,0 37.6523,0.10854 37.6523,0.10854 0,0 21.084,21.08393 21.084,21.08393 0,0 -59.0956,-0.21054 -59.0956,-0.21054 0,0 -107.96606,-107.96605 -107.96606,-107.96605"
         inkscape:connector-curvature="0" />
    </g>
    <g
       id="flowRoot5480-1"
       style="font-style:normal;font-weight:normal;font-size:160px;line-height:1.25;font-family:sans-serif;letter-spacing:0px;word-spacing:0px;opacity:0.5;fill:#bfbfbf;fill-opacity:1;stroke:none"
       aria-label="HIGHER PLANE"
       transform="translate(-22.427526,-80.04226)">
      <path
         id="path6527-0"
         style="font-style:normal;font-weight:bold;font-size:120px;fill:#bfbfbf;fill-opacity:1"
         d="m 100.603,270.90072 c 0,0 20.18634,0.001 20.18634,0.001 0,0 40.04439,40.04439 40.04439,40.04439 0,0 29.87116,0.0418 29.87116,0.0418 0,0 -40.08431,-40.08431 -40.08431,-40.08431 0,0 20.25396,0.001 20.25396,0.001 0,0 105.24843,105.24844 105.24843,105.24844 0,0 -20.32509,-0.0724 -20.32509,-0.0724 0,0 -44.59293,-44.59293 -44.59293,-44.59293 0,0 -29.89157,-0.0622 -29.89157,-0.0622 0,0 44.54851,44.54851 44.54851,44.54851 0,0 -20.25724,-0.0722 -20.25724,-0.0722 0,0 -105.00165,-105.00166 -105.00165,-105.00166"
         inkscape:connector-curvature="0" />
      <path
         id="path6529-4"
         style="font-style:normal;font-weight:bold;font-size:120px;fill:#bfbfbf;fill-opacity:1"
         d="m 190.78692,270.90645 c 0,0 20.30834,10e-4 20.30834,10e-4 0,0 105.38967,105.38968 105.38967,105.38968 0,0 -20.37965,-0.0726 -20.37965,-0.0726 0,0 -105.31836,-105.31836 -105.31836,-105.31836"
         inkscape:connector-curvature="0" />
      <path
         id="path6531-8"
         style="font-style:normal;font-weight:bold;font-size:120px;fill:#bfbfbf;fill-opacity:1"
         d="m 400.06395,368.764 c -1.81025,3.28671 -4.6409,5.74586 -8.49137,7.37785 -3.84907,1.63139 -8.69937,2.43624 -14.55025,2.415 -13.2182,-0.048 -28.58161,-4.98582 -46.0922,-14.80975 -17.54872,-9.86599 -34.72416,-23.20154 -51.53305,-40.01044 -16.99722,-16.99722 -26.45548,-30.36583 -28.37551,-40.10962 -1.92101,-9.74887 3.92848,-14.62521 17.5585,-14.62521 5.26464,0 10.9617,0.66036 17.09126,1.9814 6.16692,1.32147 12.68977,3.2804 19.56854,5.87702 0,0 21.87616,21.87617 21.87616,21.87617 -7.7786,-3.35492 -14.68791,-5.85953 -20.72831,-7.51421 -6.00326,-1.65417 -11.19711,-2.48251 -15.5819,-2.48539 -8.12968,-0.005 -11.36053,3.0307 -9.69621,9.10675 1.65203,6.02718 8.1083,14.67056 19.3692,25.93146 11.16666,11.16666 21.91082,19.79428 32.23465,25.88413 10.32674,6.09157 19.40436,9.14965 27.23371,9.17297 2.12632,0.006 3.92836,-0.15287 5.40604,-0.47765 1.46614,-0.37187 2.54878,-0.93305 3.24781,-1.68354 0,0 -20.51981,-20.51981 -20.51981,-20.51981 0,0 -12.48563,-0.0278 -12.48563,-0.0278 0,0 -18.24798,-18.24799 -18.24798,-18.24799 0,0 31.87942,0.0517 31.87942,0.0517 0,0 50.83693,50.83693 50.83693,50.83693"
         inkscape:connector-curvature="0" />
      <path
         id="path6533-7"
         style="font-style:normal;font-weight:bold;font-size:120px;fill:#bfbfbf;fill-opacity:1"
         d="m 320.17391,270.91466 c 0,0 20.48402,10e-4 20.48402,10e-4 0,0 40.33865,40.33865 40.33865,40.33865 0,0 30.31202,0.0424 30.31202,0.0424 0,0 -40.37917,-40.37917 -40.37917,-40.37917 0,0 20.55313,0.001 20.55313,0.001 0,0 106.02315,106.02317 106.02315,106.02317 0,0 -20.62531,-0.0735 -20.62531,-0.0735 0,0 -44.92095,-44.92095 -44.92095,-44.92095 0,0 -30.33273,-0.0632 -30.33273,-0.0632 0,0 44.87588,44.87589 44.87588,44.87589 0,0 -20.55596,-0.0732 -20.55596,-0.0732 0,0 -105.77273,-105.77275 -105.77273,-105.77275"
         inkscape:connector-curvature="0" />
      <path
         id="path6535-0"
         style="font-style:normal;font-weight:bold;font-size:120px;fill:#bfbfbf;fill-opacity:1"
         d="m 411.68926,270.92048 c 0,0 55.68132,0.004 55.68132,0.004 0,0 20.71687,20.71688 20.71687,20.71688 0,0 -35.0966,-0.0262 -35.0966,-0.0262 0,0 19.76843,19.76844 19.76843,19.76844 0,0 33.02297,0.0462 33.02297,0.0462 0,0 20.71544,20.71544 20.71544,20.71544 0,0 -33.04554,-0.0688 -33.04554,-0.0688 0,0 24.31944,24.31945 24.31944,24.31945 0,0 36.35632,0.1048 36.35632,0.1048 0,0 20.71769,20.71769 20.71769,20.71769 0,0 -57.06223,-0.2033 -57.06223,-0.2033 0,0 -106.09411,-106.09412 -106.09411,-106.09412"
         inkscape:connector-curvature="0" />
      <path
         id="path6537-8"
         style="font-style:normal;font-weight:bold;font-size:120px;fill:#bfbfbf;fill-opacity:1"
         d="m 563.4049,318.13225 c 4.35237,0.007 6.39467,-1.05779 6.12595,-3.19469 -0.23277,-2.13711 -2.79834,-5.65495 -7.69671,-10.55332 -4.85082,-4.85082 -9.27559,-8.32333 -13.27394,-10.41734 -3.96191,-2.09372 -8.11737,-3.14205 -12.46583,-3.14518 0,0 -8.72908,-0.006 -8.72908,-0.006 0,0 27.30267,27.30268 27.30267,27.30268 0,0 8.73694,0.0141 8.73694,0.0141 m 10.22522,18.94804 c 0,0 40.27678,40.27678 40.27678,40.27678 0,0 -20.78404,-0.074 -20.78404,-0.074 0,0 -106.35776,-106.35778 -106.35776,-106.35778 0,0 31.64323,0.002 31.64323,0.002 10.59838,6.8e-4 20.71798,2.35589 30.35557,7.0668 9.67672,4.71245 19.60835,12.16134 29.79252,22.3455 7.04326,7.04327 11.52811,12.82351 13.4543,17.34017 1.96192,4.51595 1.41905,7.83932 -1.62755,9.97011 3.7019,0.86175 8.19242,2.81724 13.47161,5.8667 5.26843,3.00241 12.12597,7.57559 20.57299,13.71991 0,0 41.59093,30.30629 41.59093,30.30629 0,0 -22.20856,-0.0791 -22.20856,-0.0791 0,0 -36.31274,-26.49977 -36.31274,-26.49977 -7.30742,-5.33122 -12.9619,-8.97382 -16.96374,-10.92814 -3.9653,-1.95397 -7.63931,-2.93465 -11.02186,-2.94223 0,0 -5.88168,-0.0132 -5.88168,-0.0132"
         inkscape:connector-curvature="0" />
      <path
         id="path6539-6"
         style="font-style:normal;font-weight:bold;font-size:120px;fill:#bfbfbf;fill-opacity:1"
         d="m 610.26694,270.93309 c 0,0 34.67214,0.002 34.67214,0.002 10.32464,6.6e-4 21.27824,3.03445 32.85868,9.10303 11.57316,6.02302 22.95276,14.62679 34.13563,25.80966 11.23067,11.23068 17.09968,19.87552 17.60689,25.93287 0.4956,6.00746 -4.43347,8.9982 -14.78179,8.97387 0,0 -13.82314,-0.0325 -13.82314,-0.0325 0,0 37.07701,37.07702 37.07701,37.07702 0,0 -20.95395,-0.0747 -20.95395,-0.0747 0,0 -106.79147,-106.79148 -106.79147,-106.79148 m 40.85067,19.97137 c 0,0 29.84771,29.84771 29.84771,29.84771 0,0 11.5834,0.0197 11.5834,0.0197 4.06262,0.007 5.91182,-1.27696 5.54675,-3.85186 -0.41286,-2.62302 -3.00713,-6.32248 -7.78276,-11.09811 -4.77561,-4.77561 -9.55907,-8.45387 -14.34983,-11.03448 -4.79007,-2.58025 -9.21458,-3.87169 -13.27322,-3.87461 0,0 -11.57205,-0.008 -11.57205,-0.008"
         inkscape:connector-curvature="0" />
      <path
         id="path6541-2"
         style="font-style:normal;font-weight:bold;font-size:120px;fill:#bfbfbf;fill-opacity:1"
         d="m 691.78215,270.93826 c 0,0 20.99277,10e-4 20.99277,10e-4 0,0 86.2666,86.26661 86.2666,86.26661 0,0 37.03445,0.10676 37.03445,0.10676 0,0 20.91013,20.91013 20.91013,20.91013 0,0 -58.12622,-0.20709 -58.12622,-0.20709 0,0 -107.07773,-107.07775 -107.07773,-107.07775"
         inkscape:connector-curvature="0" />
      <path
         id="path6543-4"
         style="font-style:normal;font-weight:bold;font-size:120px;fill:#bfbfbf;fill-opacity:1"
         d="m 900.59779,358.86311 c 0,0 -33.12229,-0.0969 -33.12229,-0.0969 0,0 14.34028,19.54541 14.34028,19.54541 0,0 -21.26151,-0.0758 -21.26151,-0.0758 0,0 -77.00951,-107.29173 -77.00951,-107.29173 0,0 25.182,0.002 25.182,0.002 0,0 137.98938,107.5971 137.98938,107.5971 0,0 -21.35152,-0.0761 -21.35152,-0.0761 0,0 -24.76683,-19.60361 -24.76683,-19.60361 m -47.7722,-20.00859 c 0,0 22.48869,0.0513 22.48869,0.0513 0,0 -53.9684,-42.773 -53.9684,-42.773 0,0 31.47971,42.72175 31.47971,42.72175"
         inkscape:connector-curvature="0" />
      <path
         id="path6545-7"
         style="font-style:normal;font-weight:bold;font-size:120px;fill:#bfbfbf;fill-opacity:1"
         d="m 849.96318,270.94831 c 0,0 23.69237,0.002 23.69237,0.002 0,0 103.92225,73.95328 103.92225,73.95328 0,0 -73.95137,-73.95138 -73.95137,-73.95138 0,0 20.17912,0.001 20.17912,0.001 0,0 107.89255,107.89256 107.89255,107.89256 0,0 -23.8534,-0.085 -23.8534,-0.085 0,0 -103.93962,-73.97769 -103.93962,-73.97769 0,0 73.87055,73.87056 73.87055,73.87056 0,0 -20.17923,-0.0719 -20.17923,-0.0719 0,0 -107.63322,-107.63325 -107.63322,-107.63325"
         inkscape:connector-curvature="0" />
      <path
         id="path6547-9"
         style="font-style:normal;font-weight:bold;font-size:120px;fill:#bfbfbf;fill-opacity:1"
         d="m 944.73134,270.95433 c 0,0 57.66536,0.004 57.66536,0.004 0,0 21.0831,21.08309 21.0831,21.08309 0,0 -36.3476,-0.0272 -36.3476,-0.0272 0,0 20.1175,20.11748 20.1175,20.11748 0,0 34.2001,0.0479 34.2001,0.0479 0,0 21.0816,21.0816 21.0816,21.0816 0,0 -34.2235,-0.0713 -34.2235,-0.0713 0,0 24.7488,24.74884 24.7488,24.74884 0,0 37.6523,0.10854 37.6523,0.10854 0,0 21.084,21.08393 21.084,21.08393 0,0 -59.0956,-0.21054 -59.0956,-0.21054 0,0 -107.96606,-107.96605 -107.96606,-107.96605"
         inkscape:connector-curvature="0" />
    </g>
    <g
       id="flowRoot5480-1-5-3"
       style="font-style:normal;font-weight:normal;font-size:160px;line-height:1.25;font-family:sans-serif;letter-spacing:0px;word-spacing:0px;display:inline;opacity:0.4;fill:#bfbfbf;fill-opacity:1;stroke:none"
       aria-label="HIGHER PLANE"
       transform="translate(-26.235693,-73.636236)"
       inkscape:export-xdpi="96"
       inkscape:export-ydpi="96">
      <path
         id="path6527-0-7-6"
         style="font-style:normal;font-weight:bold;font-size:120px;fill:#bfbfbf;fill-opacity:1"
         d="m 100.603,270.90072 c 0,0 20.18634,0.001 20.18634,0.001 0,0 40.04439,40.04439 40.04439,40.04439 0,0 29.87116,0.0418 29.87116,0.0418 0,0 -40.08431,-40.08431 -40.08431,-40.08431 0,0 20.25396,0.001 20.25396,0.001 0,0 105.24843,105.24844 105.24843,105.24844 0,0 -20.32509,-0.0724 -20.32509,-0.0724 0,0 -44.59293,-44.59293 -44.59293,-44.59293 0,0 -29.89157,-0.0622 -29.89157,-0.0622 0,0 44.54851,44.54851 44.54851,44.54851 0,0 -20.25724,-0.0722 -20.25724,-0.0722 0,0 -105.00165,-105.00166 -105.00165,-105.00166"
         inkscape:connector-curvature="0" />
      <path
         id="path6529-4-0-7"
         style="font-style:normal;font-weight:bold;font-size:120px;fill:#bfbfbf;fill-opacity:1"
         d="m 190.78692,270.90645 c 0,0 20.30834,10e-4 20.30834,10e-4 0,0 105.38967,105.38968 105.38967,105.38968 0,0 -20.37965,-0.0726 -20.37965,-0.0726 0,0 -105.31836,-105.31836 -105.31836,-105.31836"
         inkscape:connector-curvature="0" />
      <path
         id="path6531-8-8-5"
         style="font-style:normal;font-weight:bold;font-size:120px;fill:#bfbfbf;fill-opacity:1"
         d="m 400.06395,368.764 c -1.81025,3.28671 -4.6409,5.74586 -8.49137,7.37785 -3.84907,1.63139 -8.69937,2.43624 -14.55025,2.415 -13.2182,-0.048 -28.58161,-4.98582 -46.0922,-14.80975 -17.54872,-9.86599 -34.72416,-23.20154 -51.53305,-40.01044 -16.99722,-16.99722 -26.45548,-30.36583 -28.37551,-40.10962 -1.92101,-9.74887 3.92848,-14.62521 17.5585,-14.62521 5.26464,0 10.9617,0.66036 17.09126,1.9814 6.16692,1.32147 12.68977,3.2804 19.56854,5.87702 0,0 21.87616,21.87617 21.87616,21.87617 -7.7786,-3.35492 -14.68791,-5.85953 -20.72831,-7.51421 -6.00326,-1.65417 -11.19711,-2.48251 -15.5819,-2.48539 -8.12968,-0.005 -11.36053,3.0307 -9.69621,9.10675 1.65203,6.02718 8.1083,14.67056 19.3692,25.93146 11.16666,11.16666 21.91082,19.79428 32.23465,25.88413 10.32674,6.09157 19.40436,9.14965 27.23371,9.17297 2.12632,0.006 3.92836,-0.15287 5.40604,-0.47765 1.46614,-0.37187 2.54878,-0.93305 3.24781,-1.68354 0,0 -20.51981,-20.51981 -20.51981,-20.51981 0,0 -12.48563,-0.0278 -12.48563,-0.0278 0,0 -18.24798,-18.24799 -18.24798,-18.24799 0,0 31.87942,0.0517 31.87942,0.0517 0,0 50.83693,50.83693 50.83693,50.83693"
         inkscape:connector-curvature="0" />
      <path
         id="path6533-7-1-3"
         style="font-style:normal;font-weight:bold;font-size:120px;fill:#bfbfbf;fill-opacity:1"
         d="m 320.17391,270.91466 c 0,0 20.48402,10e-4 20.48402,10e-4 0,0 40.33865,40.33865 40.33865,40.33865 0,0 30.31202,0.0424 30.31202,0.0424 0,0 -40.37917,-40.37917 -40.37917,-40.37917 0,0 20.55313,0.001 20.55313,0.001 0,0 106.02315,106.02317 106.02315,106.02317 0,0 -20.62531,-0.0735 -20.62531,-0.0735 0,0 -44.92095,-44.92095 -44.92095,-44.92095 0,0 -30.33273,-0.0632 -30.33273,-0.0632 0,0 44.87588,44.87589 44.87588,44.87589 0,0 -20.55596,-0.0732 -20.55596,-0.0732 0,0 -105.77273,-105.77275 -105.77273,-105.77275"
         inkscape:connector-curvature="0" />
      <path
         id="path6535-0-9-5"
         style="font-style:normal;font-weight:bold;font-size:120px;fill:#bfbfbf;fill-opacity:1"
         d="m 411.68926,270.92048 c 0,0 55.68132,0.004 55.68132,0.004 0,0 20.71687,20.71688 20.71687,20.71688 0,0 -35.0966,-0.0262 -35.0966,-0.0262 0,0 19.76843,19.76844 19.76843,19.76844 0,0 33.02297,0.0462 33.02297,0.0462 0,0 20.71544,20.71544 20.71544,20.71544 0,0 -33.04554,-0.0688 -33.04554,-0.0688 0,0 24.31944,24.31945 24.31944,24.31945 0,0 36.35632,0.1048 36.35632,0.1048 0,0 20.71769,20.71769 20.71769,20.71769 0,0 -57.06223,-0.2033 -57.06223,-0.2033 0,0 -106.09411,-106.09412 -106.09411,-106.09412"
         inkscape:connector-curvature="0" />
      <path
         id="path6537-8-9-6"
         style="font-style:normal;font-weight:bold;font-size:120px;fill:#bfbfbf;fill-opacity:1"
         d="m 563.4049,318.13225 c 4.35237,0.007 6.39467,-1.05779 6.12595,-3.19469 -0.23277,-2.13711 -2.79834,-5.65495 -7.69671,-10.55332 -4.85082,-4.85082 -9.27559,-8.32333 -13.27394,-10.41734 -3.96191,-2.09372 -8.11737,-3.14205 -12.46583,-3.14518 0,0 -8.72908,-0.006 -8.72908,-0.006 0,0 27.30267,27.30268 27.30267,27.30268 0,0 8.73694,0.0141 8.73694,0.0141 m 10.22522,18.94804 c 0,0 40.27678,40.27678 40.27678,40.27678 0,0 -20.78404,-0.074 -20.78404,-0.074 0,0 -106.35776,-106.35778 -106.35776,-106.35778 0,0 31.64323,0.002 31.64323,0.002 10.59838,6.8e-4 20.71798,2.35589 30.35557,7.0668 9.67672,4.71245 19.60835,12.16134 29.79252,22.3455 7.04326,7.04327 11.52811,12.82351 13.4543,17.34017 1.96192,4.51595 1.41905,7.83932 -1.62755,9.97011 3.7019,0.86175 8.19242,2.81724 13.47161,5.8667 5.26843,3.00241 12.12597,7.57559 20.57299,13.71991 0,0 41.59093,30.30629 41.59093,30.30629 0,0 -22.20856,-0.0791 -22.20856,-0.0791 0,0 -36.31274,-26.49977 -36.31274,-26.49977 -7.30742,-5.33122 -12.9619,-8.97382 -16.96374,-10.92814 -3.9653,-1.95397 -7.63931,-2.93465 -11.02186,-2.94223 0,0 -5.88168,-0.0132 -5.88168,-0.0132"
         inkscape:connector-curvature="0" />
      <path
         id="path6539-6-7-2"
         style="font-style:normal;font-weight:bold;font-size:120px;fill:#bfbfbf;fill-opacity:1"
         d="m 610.26694,270.93309 c 0,0 34.67214,0.002 34.67214,0.002 10.32464,6.6e-4 21.27824,3.03445 32.85868,9.10303 11.57316,6.02302 22.95276,14.62679 34.13563,25.80966 11.23067,11.23068 17.09968,19.87552 17.60689,25.93287 0.4956,6.00746 -4.43347,8.9982 -14.78179,8.97387 0,0 -13.82314,-0.0325 -13.82314,-0.0325 0,0 37.07701,37.07702 37.07701,37.07702 0,0 -20.95395,-0.0747 -20.95395,-0.0747 0,0 -106.79147,-106.79148 -106.79147,-106.79148 m 40.85067,19.97137 c 0,0 29.84771,29.84771 29.84771,29.84771 0,0 11.5834,0.0197 11.5834,0.0197 4.06262,0.007 5.91182,-1.27696 5.54675,-3.85186 -0.41286,-2.62302 -3.00713,-6.32248 -7.78276,-11.09811 -4.77561,-4.77561 -9.55907,-8.45387 -14.34983,-11.03448 -4.79007,-2.58025 -9.21458,-3.87169 -13.27322,-3.87461 0,0 -11.57205,-0.008 -11.57205,-0.008"
         inkscape:connector-curvature="0" />
      <path
         id="path6541-2-8-9"
         style="font-style:normal;font-weight:bold;font-size:120px;fill:#bfbfbf;fill-opacity:1"
         d="m 691.78215,270.93826 c 0,0 20.99277,10e-4 20.99277,10e-4 0,0 86.2666,86.26661 86.2666,86.26661 0,0 37.03445,0.10676 37.03445,0.10676 0,0 20.91013,20.91013 20.91013,20.91013 0,0 -58.12622,-0.20709 -58.12622,-0.20709 0,0 -107.07773,-107.07775 -107.07773,-107.07775"
         inkscape:connector-curvature="0" />
      <path
         id="path6543-4-2-1"
         style="font-style:normal;font-weight:bold;font-size:120px;fill:#bfbfbf;fill-opacity:1"
         d="m 900.59779,358.86311 c 0,0 -33.12229,-0.0969 -33.12229,-0.0969 0,0 14.34028,19.54541 14.34028,19.54541 0,0 -21.26151,-0.0758 -21.26151,-0.0758 0,0 -77.00951,-107.29173 -77.00951,-107.29173 0,0 25.182,0.002 25.182,0.002 0,0 137.98938,107.5971 137.98938,107.5971 0,0 -21.35152,-0.0761 -21.35152,-0.0761 0,0 -24.76683,-19.60361 -24.76683,-19.60361 m -47.7722,-20.00859 c 0,0 22.48869,0.0513 22.48869,0.0513 0,0 -53.9684,-42.773 -53.9684,-42.773 0,0 31.47971,42.72175 31.47971,42.72175"
         inkscape:connector-curvature="0" />
      <path
         id="path6545-7-5-2"
         style="font-style:normal;font-weight:bold;font-size:120px;fill:#bfbfbf;fill-opacity:1"
         d="m 849.96318,270.94831 c 0,0 23.69237,0.002 23.69237,0.002 0,0 103.92225,73.95328 103.92225,73.95328 0,0 -73.95137,-73.95138 -73.95137,-73.95138 0,0 20.17912,0.001 20.17912,0.001 0,0 107.89255,107.89256 107.89255,107.89256 0,0 -23.8534,-0.085 -23.8534,-0.085 0,0 -103.93962,-73.97769 -103.93962,-73.97769 0,0 73.87055,73.87056 73.87055,73.87056 0,0 -20.17923,-0.0719 -20.17923,-0.0719 0,0 -107.63322,-107.63325 -107.63322,-107.63325"
         inkscape:connector-curvature="0" />
      <path
         id="path6547-9-3-7"
         style="font-style:normal;font-weight:bold;font-size:120px;fill:#bfbfbf;fill-opacity:1"
         d="m 944.73134,270.95433 c 0,0 57.66536,0.004 57.66536,0.004 0,0 21.0831,21.08309 21.0831,21.08309 0,0 -36.3476,-0.0272 -36.3476,-0.0272 0,0 20.1175,20.11748 20.1175,20.11748 0,0 34.2001,0.0479 34.2001,0.0479 0,0 21.0816,21.0816 21.0816,21.0816 0,0 -34.2235,-0.0713 -34.2235,-0.0713 0,0 24.7488,24.74884 24.7488,24.74884 0,0 37.6523,0.10854 37.6523,0.10854 0,0 21.084,21.08393 21.084,21.08393 0,0 -59.0956,-0.21054 -59.0956,-0.21054 0,0 -107.96606,-107.96605 -107.96606,-107.96605"
         inkscape:connector-curvature="0" />
    </g>
  </g>
  <g
     inkscape:label="Text"
     id="layer11"
     inkscape:groupmode="layer"
     style="display:inline"
     sodipodi:insensitive="true">
    <g
       id="flowRoot5480"
       style="font-style:normal;font-weight:normal;font-size:160px;line-height:1.25;font-family:sans-serif;letter-spacing:0px;word-spacing:0px;fill:#ffffff;fill-opacity:1;stroke:none"
       aria-label="HIGHER PLANE"
       transform="translate(-19.0181,-85.375699)">
      <path
         id="path6527"
         style="font-style:normal;font-weight:bold;font-size:120px;fill:#ffffff"
         d="m 100.603,270.90072 c 0,0 20.18634,0.001 20.18634,0.001 0,0 40.04439,40.04439 40.04439,40.04439 0,0 29.87116,0.0418 29.87116,0.0418 0,0 -40.08431,-40.08431 -40.08431,-40.08431 0,0 20.25396,0.001 20.25396,0.001 0,0 105.24843,105.24844 105.24843,105.24844 0,0 -20.32509,-0.0724 -20.32509,-0.0724 0,0 -44.59293,-44.59293 -44.59293,-44.59293 0,0 -29.89157,-0.0622 -29.89157,-0.0622 0,0 44.54851,44.54851 44.54851,44.54851 0,0 -20.25724,-0.0722 -20.25724,-0.0722 0,0 -105.00165,-105.00166 -105.00165,-105.00166"
         inkscape:connector-curvature="0" />
      <path
         id="path6529"
         style="font-style:normal;font-weight:bold;font-size:120px;fill:#ffffff"
         d="m 190.78692,270.90645 c 0,0 20.30834,10e-4 20.30834,10e-4 0,0 105.38967,105.38968 105.38967,105.38968 0,0 -20.37965,-0.0726 -20.37965,-0.0726 0,0 -105.31836,-105.31836 -105.31836,-105.31836"
         inkscape:connector-curvature="0" />
      <path
         id="path6531"
         style="font-style:normal;font-weight:bold;font-size:120px;fill:#ffffff"
         d="m 400.06395,368.764 c -1.81025,3.28671 -4.6409,5.74586 -8.49137,7.37785 -3.84907,1.63139 -8.69937,2.43624 -14.55025,2.415 -13.2182,-0.048 -28.58161,-4.98582 -46.0922,-14.80975 -17.54872,-9.86599 -34.72416,-23.20154 -51.53305,-40.01044 -16.99722,-16.99722 -26.45548,-30.36583 -28.37551,-40.10962 -1.92101,-9.74887 3.92848,-14.62521 17.5585,-14.62521 5.26464,0 10.9617,0.66036 17.09126,1.9814 6.16692,1.32147 12.68977,3.2804 19.56854,5.87702 0,0 21.87616,21.87617 21.87616,21.87617 -7.7786,-3.35492 -14.68791,-5.85953 -20.72831,-7.51421 -6.00326,-1.65417 -11.19711,-2.48251 -15.5819,-2.48539 -8.12968,-0.005 -11.36053,3.0307 -9.69621,9.10675 1.65203,6.02718 8.1083,14.67056 19.3692,25.93146 11.16666,11.16666 21.91082,19.79428 32.23465,25.88413 10.32674,6.09157 19.40436,9.14965 27.23371,9.17297 2.12632,0.006 3.92836,-0.15287 5.40604,-0.47765 1.46614,-0.37187 2.54878,-0.93305 3.24781,-1.68354 0,0 -20.51981,-20.51981 -20.51981,-20.51981 0,0 -12.48563,-0.0278 -12.48563,-0.0278 0,0 -18.24798,-18.24799 -18.24798,-18.24799 0,0 31.87942,0.0517 31.87942,0.0517 0,0 50.83693,50.83693 50.83693,50.83693"
         inkscape:connector-curvature="0" />
      <path
         id="path6533"
         style="font-style:normal;font-weight:bold;font-size:120px;fill:#ffffff"
         d="m 320.17391,270.91466 c 0,0 20.48402,10e-4 20.48402,10e-4 0,0 40.33865,40.33865 40.33865,40.33865 0,0 30.31202,0.0424 30.31202,0.0424 0,0 -40.37917,-40.37917 -40.37917,-40.37917 0,0 20.55313,0.001 20.55313,0.001 0,0 106.02315,106.02317 106.02315,106.02317 0,0 -20.62531,-0.0735 -20.62531,-0.0735 0,0 -44.92095,-44.92095 -44.92095,-44.92095 0,0 -30.33273,-0.0632 -30.33273,-0.0632 0,0 44.87588,44.87589 44.87588,44.87589 0,0 -20.55596,-0.0732 -20.55596,-0.0732 0,0 -105.77273,-105.77275 -105.77273,-105.77275"
         inkscape:connector-curvature="0" />
      <path
         id="path6535"
         style="font-style:normal;font-weight:bold;font-size:120px;fill:#ffffff"
         d="m 411.68926,270.92048 c 0,0 55.68132,0.004 55.68132,0.004 0,0 20.71687,20.71688 20.71687,20.71688 0,0 -35.0966,-0.0262 -35.0966,-0.0262 0,0 19.76843,19.76844 19.76843,19.76844 0,0 33.02297,0.0462 33.02297,0.0462 0,0 20.71544,20.71544 20.71544,20.71544 0,0 -33.04554,-0.0688 -33.04554,-0.0688 0,0 24.31944,24.31945 24.31944,24.31945 0,0 36.35632,0.1048 36.35632,0.1048 0,0 20.71769,20.71769 20.71769,20.71769 0,0 -57.06223,-0.2033 -57.06223,-0.2033 0,0 -106.09411,-106.09412 -106.09411,-106.09412"
         inkscape:connector-curvature="0" />
      <path
         id="path6537"
         style="font-style:normal;font-weight:bold;font-size:120px;fill:#ffffff"
         d="m 563.4049,318.13225 c 4.35237,0.007 6.39467,-1.05779 6.12595,-3.19469 -0.23277,-2.13711 -2.79834,-5.65495 -7.69671,-10.55332 -4.85082,-4.85082 -9.27559,-8.32333 -13.27394,-10.41734 -3.96191,-2.09372 -8.11737,-3.14205 -12.46583,-3.14518 0,0 -8.72908,-0.006 -8.72908,-0.006 0,0 27.30267,27.30268 27.30267,27.30268 0,0 8.73694,0.0141 8.73694,0.0141 m 10.22522,18.94804 c 0,0 40.27678,40.27678 40.27678,40.27678 0,0 -20.78404,-0.074 -20.78404,-0.074 0,0 -106.35776,-106.35778 -106.35776,-106.35778 0,0 31.64323,0.002 31.64323,0.002 10.59838,6.8e-4 20.71798,2.35589 30.35557,7.0668 9.67672,4.71245 19.60835,12.16134 29.79252,22.3455 7.04326,7.04327 11.52811,12.82351 13.4543,17.34017 1.96192,4.51595 1.41905,7.83932 -1.62755,9.97011 3.7019,0.86175 8.19242,2.81724 13.47161,5.8667 5.26843,3.00241 12.12597,7.57559 20.57299,13.71991 0,0 41.59093,30.30629 41.59093,30.30629 0,0 -22.20856,-0.0791 -22.20856,-0.0791 0,0 -36.31274,-26.49977 -36.31274,-26.49977 -7.30742,-5.33122 -12.9619,-8.97382 -16.96374,-10.92814 -3.9653,-1.95397 -7.63931,-2.93465 -11.02186,-2.94223 0,0 -5.88168,-0.0132 -5.88168,-0.0132"
         inkscape:connector-curvature="0" />
      <path
         id="path6539"
         style="font-style:normal;font-weight:bold;font-size:120px;fill:#ffffff"
         d="m 610.26694,270.93309 c 0,0 34.67214,0.002 34.67214,0.002 10.32464,6.6e-4 21.27824,3.03445 32.85868,9.10303 11.57316,6.02302 22.95276,14.62679 34.13563,25.80966 11.23067,11.23068 17.09968,19.87552 17.60689,25.93287 0.4956,6.00746 -4.43347,8.9982 -14.78179,8.97387 0,0 -13.82314,-0.0325 -13.82314,-0.0325 0,0 37.07701,37.07702 37.07701,37.07702 0,0 -20.95395,-0.0747 -20.95395,-0.0747 0,0 -106.79147,-106.79148 -106.79147,-106.79148 m 40.85067,19.97137 c 0,0 29.84771,29.84771 29.84771,29.84771 0,0 11.5834,0.0197 11.5834,0.0197 4.06262,0.007 5.91182,-1.27696 5.54675,-3.85186 -0.41286,-2.62302 -3.00713,-6.32248 -7.78276,-11.09811 -4.77561,-4.77561 -9.55907,-8.45387 -14.34983,-11.03448 -4.79007,-2.58025 -9.21458,-3.87169 -13.27322,-3.87461 0,0 -11.57205,-0.008 -11.57205,-0.008"
         inkscape:connector-curvature="0" />
      <path
         id="path6541"
         style="font-style:normal;font-weight:bold;font-size:120px;fill:#ffffff"
         d="m 691.78215,270.93826 c 0,0 20.99277,10e-4 20.99277,10e-4 0,0 86.2666,86.26661 86.2666,86.26661 0,0 37.03445,0.10676 37.03445,0.10676 0,0 20.91013,20.91013 20.91013,20.91013 0,0 -58.12622,-0.20709 -58.12622,-0.20709 0,0 -107.07773,-107.07775 -107.07773,-107.07775"
         inkscape:connector-curvature="0" />
      <path
         id="path6543"
         style="font-style:normal;font-weight:bold;font-size:120px;fill:#ffffff"
         d="m 900.59779,358.86311 c 0,0 -33.12229,-0.0969 -33.12229,-0.0969 0,0 14.34028,19.54541 14.34028,19.54541 0,0 -21.26151,-0.0758 -21.26151,-0.0758 0,0 -77.00951,-107.29173 -77.00951,-107.29173 0,0 25.182,0.002 25.182,0.002 0,0 137.98938,107.5971 137.98938,107.5971 0,0 -21.35152,-0.0761 -21.35152,-0.0761 0,0 -24.76683,-19.60361 -24.76683,-19.60361 m -47.7722,-20.00859 c 0,0 22.48869,0.0513 22.48869,0.0513 0,0 -53.9684,-42.773 -53.9684,-42.773 0,0 31.47971,42.72175 31.47971,42.72175"
         inkscape:connector-curvature="0" />
      <path
         id="path6545"
         style="font-style:normal;font-weight:bold;font-size:120px;fill:#ffffff"
         d="m 849.96318,270.94831 c 0,0 23.69237,0.002 23.69237,0.002 0,0 103.92225,73.95328 103.92225,73.95328 0,0 -73.95137,-73.95138 -73.95137,-73.95138 0,0 20.17912,0.001 20.17912,0.001 0,0 107.89255,107.89256 107.89255,107.89256 0,0 -23.8534,-0.085 -23.8534,-0.085 0,0 -103.93962,-73.97769 -103.93962,-73.97769 0,0 73.87055,73.87056 73.87055,73.87056 0,0 -20.17923,-0.0719 -20.17923,-0.0719 0,0 -107.63322,-107.63325 -107.63322,-107.63325"
         inkscape:connector-curvature="0" />
      <path
         id="path6547"
         style="font-style:normal;font-weight:bold;font-size:120px;fill:#ffffff"
         d="m 944.73134,270.95433 c 0,0 57.66536,0.004 57.66536,0.004 0,0 21.0831,21.08309 21.0831,21.08309 0,0 -36.3476,-0.0272 -36.3476,-0.0272 0,0 20.1175,20.11748 20.1175,20.11748 0,0 34.2001,0.0479 34.2001,0.0479 0,0 21.0816,21.0816 21.0816,21.0816 0,0 -34.2235,-0.0713 -34.2235,-0.0713 0,0 24.7488,24.74884 24.7488,24.74884 0,0 37.6523,0.10854 37.6523,0.10854 0,0 21.084,21.08393 21.084,21.08393 0,0 -59.0956,-0.21054 -59.0956,-0.21054 0,0 -107.96606,-107.96605 -107.96606,-107.96605"
         inkscape:connector-curvature="0" />
    </g>
    <g
       inkscape:groupmode="layer"
       id="layer16"
       inkscape:label="Text 4"
       style="display:none;opacity:0.3"
       sodipodi:insensitive="true" />
    <g
       inkscape:groupmode="layer"
       id="layer15"
       inkscape:label="Text 3"
       style="display:none;opacity:0.4"
       sodipodi:insensitive="true" />
    <g
       inkscape:groupmode="layer"
       id="layer14"
       inkscape:label="Text 2"
       style="display:none;opacity:0.5"
       sodipodi:insensitive="true" />
  </g>
  <g
     inkscape:groupmode="layer"
     id="layer17"
     inkscape:label="Text 5"
     style="display:inline;opacity:0.3">
    <g
       id="flowRoot5480-1-1"
       style="font-style:normal;font-weight:normal;font-size:160px;line-height:1.25;font-family:sans-serif;letter-spacing:0px;word-spacing:0px;fill:#ffffff;fill-opacity:1;stroke:none"
       aria-label="HIGHER PLANE"
       transform="translate(-13.881594,-91.831825)">
      <path
         id="path6527-0-90"
         style="font-style:normal;font-weight:bold;font-size:120px;fill:#ffffff"
         d="m 100.603,270.90072 c 0,0 20.18634,0.001 20.18634,0.001 0,0 40.04439,40.04439 40.04439,40.04439 0,0 29.87116,0.0418 29.87116,0.0418 0,0 -40.08431,-40.08431 -40.08431,-40.08431 0,0 20.25396,0.001 20.25396,0.001 0,0 105.24843,105.24844 105.24843,105.24844 0,0 -20.32509,-0.0724 -20.32509,-0.0724 0,0 -44.59293,-44.59293 -44.59293,-44.59293 0,0 -29.89157,-0.0622 -29.89157,-0.0622 0,0 44.54851,44.54851 44.54851,44.54851 0,0 -20.25724,-0.0722 -20.25724,-0.0722 0,0 -105.00165,-105.00166 -105.00165,-105.00166"
         inkscape:connector-curvature="0" />
      <path
         id="path6529-4-5"
         style="font-style:normal;font-weight:bold;font-size:120px;fill:#ffffff"
         d="m 190.78692,270.90645 c 0,0 20.30834,10e-4 20.30834,10e-4 0,0 105.38967,105.38968 105.38967,105.38968 0,0 -20.37965,-0.0726 -20.37965,-0.0726 0,0 -105.31836,-105.31836 -105.31836,-105.31836"
         inkscape:connector-curvature="0" />
      <path
         id="path6531-8-6"
         style="font-style:normal;font-weight:bold;font-size:120px;fill:#ffffff"
         d="m 400.06395,368.764 c -1.81025,3.28671 -4.6409,5.74586 -8.49137,7.37785 -3.84907,1.63139 -8.69937,2.43624 -14.55025,2.415 -13.2182,-0.048 -28.58161,-4.98582 -46.0922,-14.80975 -17.54872,-9.86599 -34.72416,-23.20154 -51.53305,-40.01044 -16.99722,-16.99722 -26.45548,-30.36583 -28.37551,-40.10962 -1.92101,-9.74887 3.92848,-14.62521 17.5585,-14.62521 5.26464,0 10.9617,0.66036 17.09126,1.9814 6.16692,1.32147 12.68977,3.2804 19.56854,5.87702 0,0 21.87616,21.87617 21.87616,21.87617 -7.7786,-3.35492 -14.68791,-5.85953 -20.72831,-7.51421 -6.00326,-1.65417 -11.19711,-2.48251 -15.5819,-2.48539 -8.12968,-0.005 -11.36053,3.0307 -9.69621,9.10675 1.65203,6.02718 8.1083,14.67056 19.3692,25.93146 11.16666,11.16666 21.91082,19.79428 32.23465,25.88413 10.32674,6.09157 19.40436,9.14965 27.23371,9.17297 2.12632,0.006 3.92836,-0.15287 5.40604,-0.47765 1.46614,-0.37187 2.54878,-0.93305 3.24781,-1.68354 0,0 -20.51981,-20.51981 -20.51981,-20.51981 0,0 -12.48563,-0.0278 -12.48563,-0.0278 0,0 -18.24798,-18.24799 -18.24798,-18.24799 0,0 31.87942,0.0517 31.87942,0.0517 0,0 50.83693,50.83693 50.83693,50.83693"
         inkscape:connector-curvature="0" />
      <path
         id="path6533-7-7"
         style="font-style:normal;font-weight:bold;font-size:120px;fill:#ffffff"
         d="m 320.17391,270.91466 c 0,0 20.48402,10e-4 20.48402,10e-4 0,0 40.33865,40.33865 40.33865,40.33865 0,0 30.31202,0.0424 30.31202,0.0424 0,0 -40.37917,-40.37917 -40.37917,-40.37917 0,0 20.55313,0.001 20.55313,0.001 0,0 106.02315,106.02317 106.02315,106.02317 0,0 -20.62531,-0.0735 -20.62531,-0.0735 0,0 -44.92095,-44.92095 -44.92095,-44.92095 0,0 -30.33273,-0.0632 -30.33273,-0.0632 0,0 44.87588,44.87589 44.87588,44.87589 0,0 -20.55596,-0.0732 -20.55596,-0.0732 0,0 -105.77273,-105.77275 -105.77273,-105.77275"
         inkscape:connector-curvature="0" />
      <path
         id="path6535-0-7"
         style="font-style:normal;font-weight:bold;font-size:120px;fill:#ffffff"
         d="m 411.68926,270.92048 c 0,0 55.68132,0.004 55.68132,0.004 0,0 20.71687,20.71688 20.71687,20.71688 0,0 -35.0966,-0.0262 -35.0966,-0.0262 0,0 19.76843,19.76844 19.76843,19.76844 0,0 33.02297,0.0462 33.02297,0.0462 0,0 20.71544,20.71544 20.71544,20.71544 0,0 -33.04554,-0.0688 -33.04554,-0.0688 0,0 24.31944,24.31945 24.31944,24.31945 0,0 36.35632,0.1048 36.35632,0.1048 0,0 20.71769,20.71769 20.71769,20.71769 0,0 -57.06223,-0.2033 -57.06223,-0.2033 0,0 -106.09411,-106.09412 -106.09411,-106.09412"
         inkscape:connector-curvature="0" />
      <path
         id="path6537-8-4"
         style="font-style:normal;font-weight:bold;font-size:120px;fill:#ffffff"
         d="m 563.4049,318.13225 c 4.35237,0.007 6.39467,-1.05779 6.12595,-3.19469 -0.23277,-2.13711 -2.79834,-5.65495 -7.69671,-10.55332 -4.85082,-4.85082 -9.27559,-8.32333 -13.27394,-10.41734 -3.96191,-2.09372 -8.11737,-3.14205 -12.46583,-3.14518 0,0 -8.72908,-0.006 -8.72908,-0.006 0,0 27.30267,27.30268 27.30267,27.30268 0,0 8.73694,0.0141 8.73694,0.0141 m 10.22522,18.94804 c 0,0 40.27678,40.27678 40.27678,40.27678 0,0 -20.78404,-0.074 -20.78404,-0.074 0,0 -106.35776,-106.35778 -106.35776,-106.35778 0,0 31.64323,0.002 31.64323,0.002 10.59838,6.8e-4 20.71798,2.35589 30.35557,7.0668 9.67672,4.71245 19.60835,12.16134 29.79252,22.3455 7.04326,7.04327 11.52811,12.82351 13.4543,17.34017 1.96192,4.51595 1.41905,7.83932 -1.62755,9.97011 3.7019,0.86175 8.19242,2.81724 13.47161,5.8667 5.26843,3.00241 12.12597,7.57559 20.57299,13.71991 0,0 41.59093,30.30629 41.59093,30.30629 0,0 -22.20856,-0.0791 -22.20856,-0.0791 0,0 -36.31274,-26.49977 -36.31274,-26.49977 -7.30742,-5.33122 -12.9619,-8.97382 -16.96374,-10.92814 -3.9653,-1.95397 -7.63931,-2.93465 -11.02186,-2.94223 0,0 -5.88168,-0.0132 -5.88168,-0.0132"
         inkscape:connector-curvature="0" />
      <path
         id="path6539-6-0"
         style="font-style:normal;font-weight:bold;font-size:120px;fill:#ffffff"
         d="m 610.26694,270.93309 c 0,0 34.67214,0.002 34.67214,0.002 10.32464,6.6e-4 21.27824,3.03445 32.85868,9.10303 11.57316,6.02302 22.95276,14.62679 34.13563,25.80966 11.23067,11.23068 17.09968,19.87552 17.60689,25.93287 0.4956,6.00746 -4.43347,8.9982 -14.78179,8.97387 0,0 -13.82314,-0.0325 -13.82314,-0.0325 0,0 37.07701,37.07702 37.07701,37.07702 0,0 -20.95395,-0.0747 -20.95395,-0.0747 0,0 -106.79147,-106.79148 -106.79147,-106.79148 m 40.85067,19.97137 c 0,0 29.84771,29.84771 29.84771,29.84771 0,0 11.5834,0.0197 11.5834,0.0197 4.06262,0.007 5.91182,-1.27696 5.54675,-3.85186 -0.41286,-2.62302 -3.00713,-6.32248 -7.78276,-11.09811 -4.77561,-4.77561 -9.55907,-8.45387 -14.34983,-11.03448 -4.79007,-2.58025 -9.21458,-3.87169 -13.27322,-3.87461 0,0 -11.57205,-0.008 -11.57205,-0.008"
         inkscape:connector-curvature="0" />
      <path
         id="path6541-2-6"
         style="font-style:normal;font-weight:bold;font-size:120px;fill:#ffffff"
         d="m 691.78215,270.93826 c 0,0 20.99277,10e-4 20.99277,10e-4 0,0 86.2666,86.26661 86.2666,86.26661 0,0 37.03445,0.10676 37.03445,0.10676 0,0 20.91013,20.91013 20.91013,20.91013 0,0 -58.12622,-0.20709 -58.12622,-0.20709 0,0 -107.07773,-107.07775 -107.07773,-107.07775"
         inkscape:connector-curvature="0" />
      <path
         id="path6543-4-4"
         style="font-style:normal;font-weight:bold;font-size:120px;fill:#ffffff"
         d="m 900.59779,358.86311 c 0,0 -33.12229,-0.0969 -33.12229,-0.0969 0,0 14.34028,19.54541 14.34028,19.54541 0,0 -21.26151,-0.0758 -21.26151,-0.0758 0,0 -77.00951,-107.29173 -77.00951,-107.29173 0,0 25.182,0.002 25.182,0.002 0,0 137.98938,107.5971 137.98938,107.5971 0,0 -21.35152,-0.0761 -21.35152,-0.0761 0,0 -24.76683,-19.60361 -24.76683,-19.60361 m -47.7722,-20.00859 c 0,0 22.48869,0.0513 22.48869,0.0513 0,0 -53.9684,-42.773 -53.9684,-42.773 0,0 31.47971,42.72175 31.47971,42.72175"
         inkscape:connector-curvature="0" />
      <path
         id="path6545-7-74"
         style="font-style:normal;font-weight:bold;font-size:120px;fill:#ffffff"
         d="m 849.96318,270.94831 c 0,0 23.69237,0.002 23.69237,0.002 0,0 103.92225,73.95328 103.92225,73.95328 0,0 -73.95137,-73.95138 -73.95137,-73.95138 0,0 20.17912,0.001 20.17912,0.001 0,0 107.89255,107.89256 107.89255,107.89256 0,0 -23.8534,-0.085 -23.8534,-0.085 0,0 -103.93962,-73.97769 -103.93962,-73.97769 0,0 73.87055,73.87056 73.87055,73.87056 0,0 -20.17923,-0.0719 -20.17923,-0.0719 0,0 -107.63322,-107.63325 -107.63322,-107.63325"
         inkscape:connector-curvature="0" />
      <path
         id="path6547-9-8"
         style="font-style:normal;font-weight:bold;font-size:120px;fill:#ffffff"
         d="m 944.73134,270.95433 c 0,0 57.66536,0.004 57.66536,0.004 0,0 21.0831,21.08309 21.0831,21.08309 0,0 -36.3476,-0.0272 -36.3476,-0.0272 0,0 20.1175,20.11748 20.1175,20.11748 0,0 34.2001,0.0479 34.2001,0.0479 0,0 21.0816,21.0816 21.0816,21.0816 0,0 -34.2235,-0.0713 -34.2235,-0.0713 0,0 24.7488,24.74884 24.7488,24.74884 0,0 37.6523,0.10854 37.6523,0.10854 0,0 21.084,21.08393 21.084,21.08393 0,0 -59.0956,-0.21054 -59.0956,-0.21054 0,0 -107.96606,-107.96605 -107.96606,-107.96605"
         inkscape:connector-curvature="0" />
    </g>
  </g>
  <g
     inkscape:groupmode="layer"
     id="layer18"
     inkscape:label="Text 6"
     style="display:inline;opacity:0.3">
    <g
       id="flowRoot5480-1-58"
       style="font-style:normal;font-weight:normal;font-size:160px;line-height:1.25;font-family:sans-serif;letter-spacing:0px;word-spacing:0px;fill:#ffffff;fill-opacity:1;stroke:none"
       aria-label="HIGHER PLANE"
       transform="translate(-4.2224548,-104.86722)">
      <path
         id="path6527-0-2"
         style="font-style:normal;font-weight:bold;font-size:120px;fill:#ffffff"
         d="m 100.603,270.90072 c 0,0 20.18634,0.001 20.18634,0.001 0,0 40.04439,40.04439 40.04439,40.04439 0,0 29.87116,0.0418 29.87116,0.0418 0,0 -40.08431,-40.08431 -40.08431,-40.08431 0,0 20.25396,0.001 20.25396,0.001 0,0 105.24843,105.24844 105.24843,105.24844 0,0 -20.32509,-0.0724 -20.32509,-0.0724 0,0 -44.59293,-44.59293 -44.59293,-44.59293 0,0 -29.89157,-0.0622 -29.89157,-0.0622 0,0 44.54851,44.54851 44.54851,44.54851 0,0 -20.25724,-0.0722 -20.25724,-0.0722 0,0 -105.00165,-105.00166 -105.00165,-105.00166"
         inkscape:connector-curvature="0" />
      <path
         id="path6529-4-6"
         style="font-style:normal;font-weight:bold;font-size:120px;fill:#ffffff"
         d="m 190.78692,270.90645 c 0,0 20.30834,10e-4 20.30834,10e-4 0,0 105.38967,105.38968 105.38967,105.38968 0,0 -20.37965,-0.0726 -20.37965,-0.0726 0,0 -105.31836,-105.31836 -105.31836,-105.31836"
         inkscape:connector-curvature="0" />
      <path
         id="path6531-8-06"
         style="font-style:normal;font-weight:bold;font-size:120px;fill:#ffffff"
         d="m 400.06395,368.764 c -1.81025,3.28671 -4.6409,5.74586 -8.49137,7.37785 -3.84907,1.63139 -8.69937,2.43624 -14.55025,2.415 -13.2182,-0.048 -28.58161,-4.98582 -46.0922,-14.80975 -17.54872,-9.86599 -34.72416,-23.20154 -51.53305,-40.01044 -16.99722,-16.99722 -26.45548,-30.36583 -28.37551,-40.10962 -1.92101,-9.74887 3.92848,-14.62521 17.5585,-14.62521 5.26464,0 10.9617,0.66036 17.09126,1.9814 6.16692,1.32147 12.68977,3.2804 19.56854,5.87702 0,0 21.87616,21.87617 21.87616,21.87617 -7.7786,-3.35492 -14.68791,-5.85953 -20.72831,-7.51421 -6.00326,-1.65417 -11.19711,-2.48251 -15.5819,-2.48539 -8.12968,-0.005 -11.36053,3.0307 -9.69621,9.10675 1.65203,6.02718 8.1083,14.67056 19.3692,25.93146 11.16666,11.16666 21.91082,19.79428 32.23465,25.88413 10.32674,6.09157 19.40436,9.14965 27.23371,9.17297 2.12632,0.006 3.92836,-0.15287 5.40604,-0.47765 1.46614,-0.37187 2.54878,-0.93305 3.24781,-1.68354 0,0 -20.51981,-20.51981 -20.51981,-20.51981 0,0 -12.48563,-0.0278 -12.48563,-0.0278 0,0 -18.24798,-18.24799 -18.24798,-18.24799 0,0 31.87942,0.0517 31.87942,0.0517 0,0 50.83693,50.83693 50.83693,50.83693"
         inkscape:connector-curvature="0" />
      <path
         id="path6533-7-6"
         style="font-style:normal;font-weight:bold;font-size:120px;fill:#ffffff"
         d="m 320.17391,270.91466 c 0,0 20.48402,10e-4 20.48402,10e-4 0,0 40.33865,40.33865 40.33865,40.33865 0,0 30.31202,0.0424 30.31202,0.0424 0,0 -40.37917,-40.37917 -40.37917,-40.37917 0,0 20.55313,0.001 20.55313,0.001 0,0 106.02315,106.02317 106.02315,106.02317 0,0 -20.62531,-0.0735 -20.62531,-0.0735 0,0 -44.92095,-44.92095 -44.92095,-44.92095 0,0 -30.33273,-0.0632 -30.33273,-0.0632 0,0 44.87588,44.87589 44.87588,44.87589 0,0 -20.55596,-0.0732 -20.55596,-0.0732 0,0 -105.77273,-105.77275 -105.77273,-105.77275"
         inkscape:connector-curvature="0" />
      <path
         id="path6535-0-4"
         style="font-style:normal;font-weight:bold;font-size:120px;fill:#ffffff"
         d="m 411.68926,270.92048 c 0,0 55.68132,0.004 55.68132,0.004 0,0 20.71687,20.71688 20.71687,20.71688 0,0 -35.0966,-0.0262 -35.0966,-0.0262 0,0 19.76843,19.76844 19.76843,19.76844 0,0 33.02297,0.0462 33.02297,0.0462 0,0 20.71544,20.71544 20.71544,20.71544 0,0 -33.04554,-0.0688 -33.04554,-0.0688 0,0 24.31944,24.31945 24.31944,24.31945 0,0 36.35632,0.1048 36.35632,0.1048 0,0 20.71769,20.71769 20.71769,20.71769 0,0 -57.06223,-0.2033 -57.06223,-0.2033 0,0 -106.09411,-106.09412 -106.09411,-106.09412"
         inkscape:connector-curvature="0" />
      <path
         id="path6537-8-6"
         style="font-style:normal;font-weight:bold;font-size:120px;fill:#ffffff"
         d="m 563.4049,318.13225 c 4.35237,0.007 6.39467,-1.05779 6.12595,-3.19469 -0.23277,-2.13711 -2.79834,-5.65495 -7.69671,-10.55332 -4.85082,-4.85082 -9.27559,-8.32333 -13.27394,-10.41734 -3.96191,-2.09372 -8.11737,-3.14205 -12.46583,-3.14518 0,0 -8.72908,-0.006 -8.72908,-0.006 0,0 27.30267,27.30268 27.30267,27.30268 0,0 8.73694,0.0141 8.73694,0.0141 m 10.22522,18.94804 c 0,0 40.27678,40.27678 40.27678,40.27678 0,0 -20.78404,-0.074 -20.78404,-0.074 0,0 -106.35776,-106.35778 -106.35776,-106.35778 0,0 31.64323,0.002 31.64323,0.002 10.59838,6.8e-4 20.71798,2.35589 30.35557,7.0668 9.67672,4.71245 19.60835,12.16134 29.79252,22.3455 7.04326,7.04327 11.52811,12.82351 13.4543,17.34017 1.96192,4.51595 1.41905,7.83932 -1.62755,9.97011 3.7019,0.86175 8.19242,2.81724 13.47161,5.8667 5.26843,3.00241 12.12597,7.57559 20.57299,13.71991 0,0 41.59093,30.30629 41.59093,30.30629 0,0 -22.20856,-0.0791 -22.20856,-0.0791 0,0 -36.31274,-26.49977 -36.31274,-26.49977 -7.30742,-5.33122 -12.9619,-8.97382 -16.96374,-10.92814 -3.9653,-1.95397 -7.63931,-2.93465 -11.02186,-2.94223 0,0 -5.88168,-0.0132 -5.88168,-0.0132"
         inkscape:connector-curvature="0" />
      <path
         id="path6539-6-2"
         style="font-style:normal;font-weight:bold;font-size:120px;fill:#ffffff"
         d="m 610.26694,270.93309 c 0,0 34.67214,0.002 34.67214,0.002 10.32464,6.6e-4 21.27824,3.03445 32.85868,9.10303 11.57316,6.02302 22.95276,14.62679 34.13563,25.80966 11.23067,11.23068 17.09968,19.87552 17.60689,25.93287 0.4956,6.00746 -4.43347,8.9982 -14.78179,8.97387 0,0 -13.82314,-0.0325 -13.82314,-0.0325 0,0 37.07701,37.07702 37.07701,37.07702 0,0 -20.95395,-0.0747 -20.95395,-0.0747 0,0 -106.79147,-106.79148 -106.79147,-106.79148 m 40.85067,19.97137 c 0,0 29.84771,29.84771 29.84771,29.84771 0,0 11.5834,0.0197 11.5834,0.0197 4.06262,0.007 5.91182,-1.27696 5.54675,-3.85186 -0.41286,-2.62302 -3.00713,-6.32248 -7.78276,-11.09811 -4.77561,-4.77561 -9.55907,-8.45387 -14.34983,-11.03448 -4.79007,-2.58025 -9.21458,-3.87169 -13.27322,-3.87461 0,0 -11.57205,-0.008 -11.57205,-0.008"
         inkscape:connector-curvature="0" />
      <path
         id="path6541-2-89"
         style="font-style:normal;font-weight:bold;font-size:120px;fill:#ffffff"
         d="m 691.78215,270.93826 c 0,0 20.99277,10e-4 20.99277,10e-4 0,0 86.2666,86.26661 86.2666,86.26661 0,0 37.03445,0.10676 37.03445,0.10676 0,0 20.91013,20.91013 20.91013,20.91013 0,0 -58.12622,-0.20709 -58.12622,-0.20709 0,0 -107.07773,-107.07775 -107.07773,-107.07775"
         inkscape:connector-curvature="0" />
      <path
         id="path6543-4-6"
         style="font-style:normal;font-weight:bold;font-size:120px;fill:#ffffff"
         d="m 900.59779,358.86311 c 0,0 -33.12229,-0.0969 -33.12229,-0.0969 0,0 14.34028,19.54541 14.34028,19.54541 0,0 -21.26151,-0.0758 -21.26151,-0.0758 0,0 -77.00951,-107.29173 -77.00951,-107.29173 0,0 25.182,0.002 25.182,0.002 0,0 137.98938,107.5971 137.98938,107.5971 0,0 -21.35152,-0.0761 -21.35152,-0.0761 0,0 -24.76683,-19.60361 -24.76683,-19.60361 m -47.7722,-20.00859 c 0,0 22.48869,0.0513 22.48869,0.0513 0,0 -53.9684,-42.773 -53.9684,-42.773 0,0 31.47971,42.72175 31.47971,42.72175"
         inkscape:connector-curvature="0" />
      <path
         id="path6545-7-0"
         style="font-style:normal;font-weight:bold;font-size:120px;fill:#ffffff"
         d="m 849.96318,270.94831 c 0,0 23.69237,0.002 23.69237,0.002 0,0 103.92225,73.95328 103.92225,73.95328 0,0 -73.95137,-73.95138 -73.95137,-73.95138 0,0 20.17912,0.001 20.17912,0.001 0,0 107.89255,107.89256 107.89255,107.89256 0,0 -23.8534,-0.085 -23.8534,-0.085 0,0 -103.93962,-73.97769 -103.93962,-73.97769 0,0 73.87055,73.87056 73.87055,73.87056 0,0 -20.17923,-0.0719 -20.17923,-0.0719 0,0 -107.63322,-107.63325 -107.63322,-107.63325"
         inkscape:connector-curvature="0" />
      <path
         id="path6547-9-7"
         style="font-style:normal;font-weight:bold;font-size:120px;fill:#ffffff"
         d="m 944.73134,270.95433 c 0,0 57.66536,0.004 57.66536,0.004 0,0 21.0831,21.08309 21.0831,21.08309 0,0 -36.3476,-0.0272 -36.3476,-0.0272 0,0 20.1175,20.11748 20.1175,20.11748 0,0 34.2001,0.0479 34.2001,0.0479 0,0 21.0816,21.0816 21.0816,21.0816 0,0 -34.2235,-0.0713 -34.2235,-0.0713 0,0 24.7488,24.74884 24.7488,24.74884 0,0 37.6523,0.10854 37.6523,0.10854 0,0 21.084,21.08393 21.084,21.08393 0,0 -59.0956,-0.21054 -59.0956,-0.21054 0,0 -107.96606,-107.96605 -107.96606,-107.96605"
         inkscape:connector-curvature="0" />
    </g>
  </g>
  <g
     inkscape:groupmode="layer"
     id="layer19"
     inkscape:label="Text 7"
     style="display:inline;opacity:0.3">
    <g
       id="flowRoot5480-1-0"
       style="font-style:normal;font-weight:normal;font-size:160px;line-height:1.25;font-family:sans-serif;letter-spacing:0px;word-spacing:0px;fill:#ffffff;fill-opacity:1;stroke:none"
       aria-label="HIGHER PLANE"
       transform="translate(-9.2514161,-98.078013)">
      <path
         id="path6527-0-1"
         style="font-style:normal;font-weight:bold;font-size:120px;fill:#ffffff"
         d="m 100.603,270.90072 c 0,0 20.18634,0.001 20.18634,0.001 0,0 40.04439,40.04439 40.04439,40.04439 0,0 29.87116,0.0418 29.87116,0.0418 0,0 -40.08431,-40.08431 -40.08431,-40.08431 0,0 20.25396,0.001 20.25396,0.001 0,0 105.24843,105.24844 105.24843,105.24844 0,0 -20.32509,-0.0724 -20.32509,-0.0724 0,0 -44.59293,-44.59293 -44.59293,-44.59293 0,0 -29.89157,-0.0622 -29.89157,-0.0622 0,0 44.54851,44.54851 44.54851,44.54851 0,0 -20.25724,-0.0722 -20.25724,-0.0722 0,0 -105.00165,-105.00166 -105.00165,-105.00166"
         inkscape:connector-curvature="0" />
      <path
         id="path6529-4-01"
         style="font-style:normal;font-weight:bold;font-size:120px;fill:#ffffff"
         d="m 190.78692,270.90645 c 0,0 20.30834,10e-4 20.30834,10e-4 0,0 105.38967,105.38968 105.38967,105.38968 0,0 -20.37965,-0.0726 -20.37965,-0.0726 0,0 -105.31836,-105.31836 -105.31836,-105.31836"
         inkscape:connector-curvature="0" />
      <path
         id="path6531-8-3"
         style="font-style:normal;font-weight:bold;font-size:120px;fill:#ffffff"
         d="m 400.06395,368.764 c -1.81025,3.28671 -4.6409,5.74586 -8.49137,7.37785 -3.84907,1.63139 -8.69937,2.43624 -14.55025,2.415 -13.2182,-0.048 -28.58161,-4.98582 -46.0922,-14.80975 -17.54872,-9.86599 -34.72416,-23.20154 -51.53305,-40.01044 -16.99722,-16.99722 -26.45548,-30.36583 -28.37551,-40.10962 -1.92101,-9.74887 3.92848,-14.62521 17.5585,-14.62521 5.26464,0 10.9617,0.66036 17.09126,1.9814 6.16692,1.32147 12.68977,3.2804 19.56854,5.87702 0,0 21.87616,21.87617 21.87616,21.87617 -7.7786,-3.35492 -14.68791,-5.85953 -20.72831,-7.51421 -6.00326,-1.65417 -11.19711,-2.48251 -15.5819,-2.48539 -8.12968,-0.005 -11.36053,3.0307 -9.69621,9.10675 1.65203,6.02718 8.1083,14.67056 19.3692,25.93146 11.16666,11.16666 21.91082,19.79428 32.23465,25.88413 10.32674,6.09157 19.40436,9.14965 27.23371,9.17297 2.12632,0.006 3.92836,-0.15287 5.40604,-0.47765 1.46614,-0.37187 2.54878,-0.93305 3.24781,-1.68354 0,0 -20.51981,-20.51981 -20.51981,-20.51981 0,0 -12.48563,-0.0278 -12.48563,-0.0278 0,0 -18.24798,-18.24799 -18.24798,-18.24799 0,0 31.87942,0.0517 31.87942,0.0517 0,0 50.83693,50.83693 50.83693,50.83693"
         inkscape:connector-curvature="0" />
      <path
         id="path6533-7-77"
         style="font-style:normal;font-weight:bold;font-size:120px;fill:#ffffff"
         d="m 320.17391,270.91466 c 0,0 20.48402,10e-4 20.48402,10e-4 0,0 40.33865,40.33865 40.33865,40.33865 0,0 30.31202,0.0424 30.31202,0.0424 0,0 -40.37917,-40.37917 -40.37917,-40.37917 0,0 20.55313,0.001 20.55313,0.001 0,0 106.02315,106.02317 106.02315,106.02317 0,0 -20.62531,-0.0735 -20.62531,-0.0735 0,0 -44.92095,-44.92095 -44.92095,-44.92095 0,0 -30.33273,-0.0632 -30.33273,-0.0632 0,0 44.87588,44.87589 44.87588,44.87589 0,0 -20.55596,-0.0732 -20.55596,-0.0732 0,0 -105.77273,-105.77275 -105.77273,-105.77275"
         inkscape:connector-curvature="0" />
      <path
         id="path6535-0-2"
         style="font-style:normal;font-weight:bold;font-size:120px;fill:#ffffff"
         d="m 411.68926,270.92048 c 0,0 55.68132,0.004 55.68132,0.004 0,0 20.71687,20.71688 20.71687,20.71688 0,0 -35.0966,-0.0262 -35.0966,-0.0262 0,0 19.76843,19.76844 19.76843,19.76844 0,0 33.02297,0.0462 33.02297,0.0462 0,0 20.71544,20.71544 20.71544,20.71544 0,0 -33.04554,-0.0688 -33.04554,-0.0688 0,0 24.31944,24.31945 24.31944,24.31945 0,0 36.35632,0.1048 36.35632,0.1048 0,0 20.71769,20.71769 20.71769,20.71769 0,0 -57.06223,-0.2033 -57.06223,-0.2033 0,0 -106.09411,-106.09412 -106.09411,-106.09412"
         inkscape:connector-curvature="0" />
      <path
         id="path6537-8-64"
         style="font-style:normal;font-weight:bold;font-size:120px;fill:#ffffff"
         d="m 563.4049,318.13225 c 4.35237,0.007 6.39467,-1.05779 6.12595,-3.19469 -0.23277,-2.13711 -2.79834,-5.65495 -7.69671,-10.55332 -4.85082,-4.85082 -9.27559,-8.32333 -13.27394,-10.41734 -3.96191,-2.09372 -8.11737,-3.14205 -12.46583,-3.14518 0,0 -8.72908,-0.006 -8.72908,-0.006 0,0 27.30267,27.30268 27.30267,27.30268 0,0 8.73694,0.0141 8.73694,0.0141 m 10.22522,18.94804 c 0,0 40.27678,40.27678 40.27678,40.27678 0,0 -20.78404,-0.074 -20.78404,-0.074 0,0 -106.35776,-106.35778 -106.35776,-106.35778 0,0 31.64323,0.002 31.64323,0.002 10.59838,6.8e-4 20.71798,2.35589 30.35557,7.0668 9.67672,4.71245 19.60835,12.16134 29.79252,22.3455 7.04326,7.04327 11.52811,12.82351 13.4543,17.34017 1.96192,4.51595 1.41905,7.83932 -1.62755,9.97011 3.7019,0.86175 8.19242,2.81724 13.47161,5.8667 5.26843,3.00241 12.12597,7.57559 20.57299,13.71991 0,0 41.59093,30.30629 41.59093,30.30629 0,0 -22.20856,-0.0791 -22.20856,-0.0791 0,0 -36.31274,-26.49977 -36.31274,-26.49977 -7.30742,-5.33122 -12.9619,-8.97382 -16.96374,-10.92814 -3.9653,-1.95397 -7.63931,-2.93465 -11.02186,-2.94223 0,0 -5.88168,-0.0132 -5.88168,-0.0132"
         inkscape:connector-curvature="0" />
      <path
         id="path6539-6-5"
         style="font-style:normal;font-weight:bold;font-size:120px;fill:#ffffff"
         d="m 610.26694,270.93309 c 0,0 34.67214,0.002 34.67214,0.002 10.32464,6.6e-4 21.27824,3.03445 32.85868,9.10303 11.57316,6.02302 22.95276,14.62679 34.13563,25.80966 11.23067,11.23068 17.09968,19.87552 17.60689,25.93287 0.4956,6.00746 -4.43347,8.9982 -14.78179,8.97387 0,0 -13.82314,-0.0325 -13.82314,-0.0325 0,0 37.07701,37.07702 37.07701,37.07702 0,0 -20.95395,-0.0747 -20.95395,-0.0747 0,0 -106.79147,-106.79148 -106.79147,-106.79148 m 40.85067,19.97137 c 0,0 29.84771,29.84771 29.84771,29.84771 0,0 11.5834,0.0197 11.5834,0.0197 4.06262,0.007 5.91182,-1.27696 5.54675,-3.85186 -0.41286,-2.62302 -3.00713,-6.32248 -7.78276,-11.09811 -4.77561,-4.77561 -9.55907,-8.45387 -14.34983,-11.03448 -4.79007,-2.58025 -9.21458,-3.87169 -13.27322,-3.87461 0,0 -11.57205,-0.008 -11.57205,-0.008"
         inkscape:connector-curvature="0" />
      <path
         id="path6541-2-20"
         style="font-style:normal;font-weight:bold;font-size:120px;fill:#ffffff"
         d="m 691.78215,270.93826 c 0,0 20.99277,10e-4 20.99277,10e-4 0,0 86.2666,86.26661 86.2666,86.26661 0,0 37.03445,0.10676 37.03445,0.10676 0,0 20.91013,20.91013 20.91013,20.91013 0,0 -58.12622,-0.20709 -58.12622,-0.20709 0,0 -107.07773,-107.07775 -107.07773,-107.07775"
         inkscape:connector-curvature="0" />
      <path
         id="path6543-4-29"
         style="font-style:normal;font-weight:bold;font-size:120px;fill:#ffffff"
         d="m 900.59779,358.86311 c 0,0 -33.12229,-0.0969 -33.12229,-0.0969 0,0 14.34028,19.54541 14.34028,19.54541 0,0 -21.26151,-0.0758 -21.26151,-0.0758 0,0 -77.00951,-107.29173 -77.00951,-107.29173 0,0 25.182,0.002 25.182,0.002 0,0 137.98938,107.5971 137.98938,107.5971 0,0 -21.35152,-0.0761 -21.35152,-0.0761 0,0 -24.76683,-19.60361 -24.76683,-19.60361 m -47.7722,-20.00859 c 0,0 22.48869,0.0513 22.48869,0.0513 0,0 -53.9684,-42.773 -53.9684,-42.773 0,0 31.47971,42.72175 31.47971,42.72175"
         inkscape:connector-curvature="0" />
      <path
         id="path6545-7-09"
         style="font-style:normal;font-weight:bold;font-size:120px;fill:#ffffff"
         d="m 849.96318,270.94831 c 0,0 23.69237,0.002 23.69237,0.002 0,0 103.92225,73.95328 103.92225,73.95328 0,0 -73.95137,-73.95138 -73.95137,-73.95138 0,0 20.17912,0.001 20.17912,0.001 0,0 107.89255,107.89256 107.89255,107.89256 0,0 -23.8534,-0.085 -23.8534,-0.085 0,0 -103.93962,-73.97769 -103.93962,-73.97769 0,0 73.87055,73.87056 73.87055,73.87056 0,0 -20.17923,-0.0719 -20.17923,-0.0719 0,0 -107.63322,-107.63325 -107.63322,-107.63325"
         inkscape:connector-curvature="0" />
      <path
         id="path6547-9-9"
         style="font-style:normal;font-weight:bold;font-size:120px;fill:#ffffff"
         d="m 944.73134,270.95433 c 0,0 57.66536,0.004 57.66536,0.004 0,0 21.0831,21.08309 21.0831,21.08309 0,0 -36.3476,-0.0272 -36.3476,-0.0272 0,0 20.1175,20.11748 20.1175,20.11748 0,0 34.2001,0.0479 34.2001,0.0479 0,0 21.0816,21.0816 21.0816,21.0816 0,0 -34.2235,-0.0713 -34.2235,-0.0713 0,0 24.7488,24.74884 24.7488,24.74884 0,0 37.6523,0.10854 37.6523,0.10854 0,0 21.084,21.08393 21.084,21.08393 0,0 -59.0956,-0.21054 -59.0956,-0.21054 0,0 -107.96606,-107.96605 -107.96606,-107.96605"
         inkscape:connector-curvature="0" />
    </g>
  </g>
</svg>
